<?xml version="1.0" encoding="UTF-8" standalone="no"?>
<!DOCTYPE svg PUBLIC "-//W3C//DTD SVG 1.1//EN" "http://www.w3.org/Graphics/SVG/1.1/DTD/svg11.dtd">
<svg width="100%" height="100%" viewBox="0 0 709 304" version="1.1" xmlns="http://www.w3.org/2000/svg" xmlns:xlink="http://www.w3.org/1999/xlink" xml:space="preserve" xmlns:serif="http://www.serif.com/" style="fill-rule:evenodd;clip-rule:evenodd;stroke-linejoin:round;stroke-miterlimit:2;">
    <g transform="matrix(1,0,0,1,-48.026156,-1764.163963)">
        <g transform="matrix(0.501702,0,0,0.501702,-64.444991,1390.738321)">
            <g transform="matrix(7.03348,0,0,7.03348,115.592163,550.92387)">
                <path d="M107.898,77.362C107.943,77.294 108.011,77.215 108.101,77.125L109.66,75.566L111.185,77.125C111.366,77.306 111.457,77.509 111.457,77.735C111.457,77.961 111.366,78.164 111.185,78.345L109.66,79.904L108.101,78.345C108.011,78.255 107.943,78.176 107.898,78.108C107.875,78.176 107.818,78.255 107.728,78.345L106.169,79.904L104.61,78.345C104.451,78.164 104.372,77.961 104.372,77.735C104.372,77.509 104.451,77.306 104.61,77.125L106.169,75.566L107.728,77.125C107.818,77.215 107.875,77.294 107.898,77.362Z" style="fill:rgb(82,37,0);fill-rule:nonzero;"/>
                <path d="M133.862,53.431L132.303,51.872C132.145,51.691 132.066,51.488 132.066,51.262C132.066,51.036 132.145,50.821 132.303,50.618L133.862,49.093L135.421,50.618C135.58,50.821 135.659,51.036 135.659,51.262C135.659,51.488 135.58,51.691 135.421,51.872L133.862,53.431Z" style="fill:rgb(82,37,0);fill-rule:nonzero;"/>
                <path d="M185.283,59.261L186.842,57.702C187,57.521 187.08,57.318 187.08,57.092C187.08,56.866 187,56.663 186.842,56.482L185.283,54.923L183.724,56.482C183.566,56.663 183.486,56.866 183.486,57.092C183.486,57.318 183.566,57.521 183.724,57.702L185.283,59.261Z" style="fill:rgb(82,37,0);fill-rule:nonzero;"/>
                <path d="M194.672,77.362C194.718,77.272 194.785,77.181 194.876,77.091L196.435,75.566L197.994,77.091C198.152,77.294 198.231,77.509 198.231,77.735C198.231,77.961 198.152,78.164 197.994,78.345L196.435,79.904L194.876,78.345C194.785,78.255 194.718,78.176 194.672,78.108C194.65,78.176 194.593,78.255 194.503,78.345L192.944,79.904L191.384,78.345C191.226,78.164 191.147,77.961 191.147,77.735C191.147,77.509 191.226,77.294 191.384,77.091L192.944,75.566L194.503,77.091C194.593,77.181 194.65,77.272 194.672,77.362Z" style="fill:rgb(82,37,0);fill-rule:nonzero;"/>
                <path d="M212.495,72.894C212.045,73.248 211.555,73.54 211.027,73.769C210.248,74.108 209.406,74.278 208.502,74.278L202.299,74.278C202.412,74.029 202.519,73.803 202.621,73.6C202.723,73.396 202.864,73.295 203.045,73.295C203.451,73.295 203.757,73.136 203.96,72.819C204.073,72.638 204.129,72.457 204.129,72.276C204.129,72.094 204.073,71.902 203.96,71.698C203.644,71.109 203.485,70.475 203.485,69.795L203.485,65.209C203.485,64.439 203.836,63.828 204.536,63.375C205.553,62.74 206.141,61.959 206.299,61.03C206.344,60.759 206.367,60.487 206.367,60.215C206.367,59.559 206.208,58.936 205.892,58.347C205.824,58.233 205.734,58.177 205.621,58.177L205.451,58.177C205.384,58.177 205.327,58.256 205.282,58.414C205.101,58.956 204.762,59.341 204.265,59.567C204.062,59.657 203.847,59.702 203.621,59.702C203.35,59.702 203.067,59.623 202.774,59.465C202.186,59.126 201.892,58.629 201.892,57.973C201.892,57.702 201.971,57.42 202.13,57.126C202.491,56.561 202.988,56.279 203.621,56.279C203.892,56.279 204.175,56.358 204.468,56.516C205.237,56.946 205.926,57.626 206.536,58.554C207.146,59.483 207.451,60.535 207.451,61.713L207.451,72.446C207.451,73.034 207.79,73.329 208.468,73.329C209.214,73.329 209.841,73.074 210.349,72.566C210.858,72.057 211.112,71.453 211.112,70.752L211.112,69.769C211.112,71.046 211.573,72.088 212.495,72.894Z" style="fill:rgb(82,37,0);fill-rule:nonzero;"/>
            </g>
            <g transform="matrix(7.03348,0,0,7.03348,115.592163,550.92387)">
                <path d="M18.883,98.925C18.666,98.933 18.508,98.957 18.41,98.995C18.312,99.033 18.245,99.103 18.208,99.206C18.172,99.308 18.153,99.472 18.153,99.698L18.153,104.341C18.153,104.511 18.165,104.635 18.188,104.712C18.212,104.79 18.254,104.842 18.316,104.868C18.377,104.895 18.477,104.908 18.615,104.908L18.913,104.908C19.121,104.908 19.349,104.802 19.596,104.591C19.844,104.381 20.066,104.103 20.262,103.759C20.458,103.415 20.59,103.057 20.657,102.685L20.864,102.685C20.846,102.899 20.837,103.174 20.837,103.511C20.837,104.161 20.858,104.695 20.899,105.114C20.492,105.097 19.805,105.088 18.839,105.088C17.436,105.088 16.386,105.097 15.689,105.114L15.689,104.934C15.882,104.925 16.022,104.902 16.108,104.864C16.195,104.826 16.253,104.755 16.284,104.653C16.315,104.55 16.33,104.386 16.33,104.161L16.33,99.698C16.33,99.472 16.314,99.308 16.282,99.206C16.25,99.103 16.19,99.033 16.104,98.995C16.018,98.957 15.879,98.933 15.689,98.925L15.689,98.744C16.032,98.762 16.566,98.771 17.292,98.771C17.983,98.771 18.514,98.762 18.883,98.744L18.883,98.925Z" style="fill:rgb(82,37,0);fill-rule:nonzero;"/>
                <path d="M24.427,98.925C24.234,98.933 24.094,98.957 24.007,98.995C23.921,99.033 23.862,99.103 23.832,99.206C23.801,99.308 23.786,99.472 23.786,99.698L23.786,104.161C23.786,104.386 23.802,104.55 23.834,104.653C23.866,104.755 23.925,104.826 24.012,104.864C24.098,104.902 24.237,104.925 24.427,104.934L24.427,105.114C24.075,105.097 23.575,105.088 22.924,105.088C22.198,105.088 21.664,105.097 21.321,105.114L21.321,104.934C21.514,104.925 21.654,104.902 21.741,104.864C21.827,104.826 21.886,104.755 21.916,104.653C21.947,104.55 21.962,104.386 21.962,104.161L21.962,99.698C21.962,99.472 21.946,99.308 21.914,99.206C21.882,99.103 21.823,99.033 21.736,98.995C21.65,98.957 21.511,98.933 21.321,98.925L21.321,98.744C21.664,98.762 22.198,98.771 22.924,98.771C23.575,98.771 24.075,98.762 24.427,98.744L24.427,98.925Z" style="fill:rgb(82,37,0);fill-rule:nonzero;"/>
                <path d="M31.047,98.925C30.86,98.966 30.722,99.03 30.635,99.118C30.547,99.206 30.487,99.34 30.457,99.52C30.426,99.7 30.41,99.969 30.41,100.326L30.41,105.114C30.323,105.105 30.225,105.101 30.116,105.101C30.011,105.101 29.898,105.105 29.778,105.114L25.794,100.761L25.794,103.353C25.794,103.795 25.811,104.113 25.846,104.306C25.881,104.499 25.96,104.642 26.083,104.734C26.206,104.826 26.413,104.893 26.703,104.934L26.703,105.114C26.463,105.097 26.126,105.088 25.692,105.088C25.376,105.088 25.127,105.097 24.946,105.114L24.946,104.934C25.133,104.893 25.271,104.829 25.361,104.741C25.45,104.653 25.51,104.519 25.541,104.339C25.572,104.159 25.587,103.89 25.587,103.533L25.587,99.698C25.587,99.472 25.571,99.308 25.539,99.206C25.507,99.103 25.447,99.033 25.361,98.995C25.274,98.957 25.136,98.933 24.946,98.925L24.946,98.744C25.127,98.762 25.376,98.771 25.692,98.771C26.023,98.771 26.3,98.762 26.523,98.744L30.2,102.632L30.2,100.506C30.2,100.064 30.182,99.746 30.147,99.553C30.112,99.359 30.033,99.217 29.912,99.124C29.79,99.032 29.585,98.966 29.295,98.925L29.295,98.744C29.538,98.762 29.873,98.771 30.301,98.771C30.62,98.771 30.869,98.762 31.047,98.744L31.047,98.925Z" style="fill:rgb(82,37,0);fill-rule:nonzero;"/>
                <path d="M36.688,102.777C36.671,102.991 36.662,103.266 36.662,103.603C36.662,104.215 36.683,104.719 36.724,105.114C36.316,105.097 35.63,105.088 34.663,105.088C33.26,105.088 32.211,105.097 31.514,105.114L31.514,104.934C31.707,104.925 31.847,104.902 31.933,104.864C32.019,104.826 32.078,104.755 32.109,104.653C32.14,104.55 32.155,104.386 32.155,104.161L32.155,99.698C32.155,99.472 32.139,99.308 32.107,99.206C32.074,99.103 32.015,99.033 31.929,98.995C31.842,98.957 31.704,98.933 31.514,98.925L31.514,98.744C32.211,98.762 33.26,98.771 34.663,98.771C35.545,98.771 36.172,98.762 36.543,98.744C36.502,99.307 36.482,99.81 36.482,100.256C36.482,100.534 36.491,100.751 36.508,100.906L36.302,100.906C36.196,100.209 35.997,99.709 35.702,99.406C35.408,99.102 35.056,98.951 34.646,98.951L34.527,98.951C34.363,98.951 34.244,98.964 34.171,98.99C34.098,99.017 34.048,99.069 34.02,99.146C33.992,99.224 33.978,99.348 33.978,99.518L33.978,101.82L34.07,101.82C34.284,101.82 34.477,101.759 34.648,101.639C34.819,101.519 34.961,101.369 35.072,101.187C35.183,101.005 35.258,100.821 35.296,100.633L35.502,100.633C35.479,100.985 35.467,101.276 35.467,101.508L35.472,101.912C35.472,102.169 35.491,102.596 35.529,103.19L35.322,103.19C35.284,102.965 35.209,102.762 35.096,102.582C34.983,102.402 34.839,102.26 34.663,102.156C34.488,102.052 34.29,102 34.07,102L33.978,102L33.978,104.341C33.978,104.514 33.992,104.638 34.02,104.714C34.048,104.791 34.098,104.842 34.171,104.868C34.244,104.895 34.363,104.908 34.527,104.908L34.826,104.908C35.043,104.908 35.26,104.839 35.478,104.701C35.696,104.564 35.895,104.336 36.076,104.018C36.256,103.7 36.391,103.287 36.482,102.777L36.688,102.777Z" style="fill:rgb(82,37,0);fill-rule:nonzero;"/>
                <path d="M44.904,105.114C44.889,104.927 44.865,104.791 44.832,104.708C44.798,104.624 44.749,104.583 44.684,104.583C44.638,104.583 44.576,104.608 44.5,104.657C44.321,104.783 44.157,104.887 44.006,104.967C43.855,105.048 43.683,105.113 43.49,105.165C43.296,105.216 43.078,105.242 42.835,105.242C42.156,105.242 41.561,105.113 41.051,104.855C40.542,104.597 40.147,104.223 39.865,103.733C39.584,103.242 39.444,102.659 39.444,101.982C39.444,101.32 39.588,100.734 39.876,100.225C40.165,99.715 40.566,99.32 41.08,99.039C41.594,98.758 42.182,98.617 42.844,98.617C43.201,98.617 43.506,98.668 43.76,98.771C44.013,98.873 44.26,99.017 44.5,99.201C44.567,99.254 44.626,99.28 44.676,99.28C44.799,99.28 44.875,99.102 44.904,98.744L45.111,98.744C45.087,99.169 45.075,99.919 45.075,100.994L44.869,100.994C44.84,100.674 44.798,100.407 44.744,100.192C44.69,99.977 44.607,99.783 44.496,99.612C44.384,99.441 44.232,99.292 44.039,99.166C43.763,98.988 43.485,98.898 43.204,98.898C42.774,98.898 42.433,99.05 42.183,99.353C41.932,99.656 41.758,100.035 41.66,100.488C41.562,100.942 41.513,101.429 41.513,101.947C41.513,102.465 41.562,102.951 41.66,103.405C41.758,103.859 41.932,104.238 42.183,104.541C42.433,104.844 42.774,104.996 43.204,104.996C43.485,104.996 43.763,104.906 44.039,104.728C44.232,104.608 44.384,104.46 44.496,104.284C44.607,104.108 44.69,103.902 44.744,103.667C44.798,103.431 44.84,103.134 44.869,102.777L45.075,102.777C45.075,103.893 45.087,104.672 45.111,105.114L44.904,105.114Z" style="fill:rgb(82,37,0);fill-rule:nonzero;"/>
                <path d="M49.293,98.617C49.972,98.617 50.567,98.746 51.077,99.004C51.586,99.261 51.982,99.635 52.263,100.126C52.544,100.617 52.684,101.2 52.684,101.877C52.684,102.538 52.54,103.124 52.252,103.634C51.963,104.143 51.561,104.539 51.046,104.82C50.53,105.101 49.943,105.242 49.284,105.242C48.605,105.242 48.01,105.113 47.501,104.855C46.991,104.597 46.596,104.223 46.315,103.733C46.034,103.242 45.893,102.659 45.893,101.982C45.893,101.32 46.037,100.734 46.326,100.225C46.614,99.715 47.015,99.32 47.529,99.039C48.043,98.758 48.631,98.617 49.293,98.617ZM49.258,98.78C48.962,98.78 48.703,98.914 48.48,99.182C48.258,99.45 48.086,99.823 47.964,100.302C47.843,100.781 47.782,101.329 47.782,101.947C47.782,102.568 47.851,103.116 47.988,103.592C48.126,104.068 48.312,104.435 48.546,104.692C48.781,104.95 49.038,105.079 49.319,105.079C49.615,105.079 49.874,104.945 50.097,104.677C50.32,104.409 50.492,104.036 50.613,103.557C50.735,103.078 50.795,102.53 50.795,101.912C50.795,101.291 50.727,100.743 50.589,100.267C50.451,99.791 50.265,99.424 50.031,99.166C49.797,98.908 49.539,98.78 49.258,98.78Z" style="fill:rgb(82,37,0);fill-rule:nonzero;"/>
                <path d="M53.19,98.744C53.887,98.762 54.937,98.771 56.34,98.771C57.221,98.771 57.848,98.762 58.22,98.744C58.179,99.307 58.158,99.81 58.158,100.256C58.158,100.534 58.167,100.751 58.185,100.906L57.978,100.906C57.832,100.212 57.611,99.712 57.315,99.408C57.019,99.103 56.688,98.951 56.322,98.951L56.204,98.951C56.04,98.951 55.921,98.964 55.848,98.99C55.775,99.017 55.724,99.069 55.696,99.146C55.668,99.224 55.654,99.348 55.654,99.518L55.654,101.82L55.747,101.82C55.96,101.82 56.153,101.759 56.324,101.639C56.496,101.519 56.637,101.369 56.748,101.187C56.86,101.005 56.934,100.821 56.972,100.633L57.179,100.633C57.155,100.985 57.144,101.276 57.144,101.508L57.148,101.912C57.148,102.169 57.167,102.596 57.205,103.19L56.999,103.19C56.961,102.965 56.885,102.762 56.772,102.582C56.66,102.402 56.515,102.26 56.34,102.156C56.164,102.052 55.966,102 55.747,102L55.654,102L55.654,104.069C55.654,104.321 55.68,104.504 55.731,104.62C55.783,104.736 55.876,104.813 56.012,104.851C56.149,104.889 56.363,104.908 56.656,104.908L56.656,105.114C55.848,105.097 55.23,105.088 54.802,105.088C54.703,105.088 54.165,105.097 53.19,105.114L53.19,104.934C53.383,104.925 53.523,104.902 53.61,104.864C53.696,104.826 53.755,104.755 53.785,104.653C53.816,104.55 53.831,104.386 53.831,104.161L53.831,99.698C53.831,99.472 53.815,99.308 53.783,99.206C53.751,99.103 53.692,99.033 53.605,98.995C53.519,98.957 53.38,98.933 53.19,98.925L53.19,98.744Z" style="fill:rgb(82,37,0);fill-rule:nonzero;"/>
                <path d="M58.66,98.744C59.357,98.762 60.407,98.771 61.809,98.771C62.691,98.771 63.318,98.762 63.69,98.744C63.649,99.307 63.628,99.81 63.628,100.256C63.628,100.534 63.637,100.751 63.654,100.906L63.448,100.906C63.302,100.212 63.08,99.712 62.785,99.408C62.489,99.103 62.158,98.951 61.792,98.951L61.673,98.951C61.509,98.951 61.391,98.964 61.317,98.99C61.244,99.017 61.194,99.069 61.166,99.146C61.138,99.224 61.124,99.348 61.124,99.518L61.124,101.82L61.216,101.82C61.43,101.82 61.623,101.759 61.794,101.639C61.965,101.519 62.107,101.369 62.218,101.187C62.329,101.005 62.404,100.821 62.442,100.633L62.648,100.633C62.625,100.985 62.613,101.276 62.613,101.508L62.618,101.912C62.618,102.169 62.637,102.596 62.675,103.19L62.468,103.19C62.43,102.965 62.355,102.762 62.242,102.582C62.129,102.402 61.985,102.26 61.809,102.156C61.634,102.052 61.436,102 61.216,102L61.124,102L61.124,104.069C61.124,104.321 61.15,104.504 61.201,104.62C61.252,104.736 61.346,104.813 61.482,104.851C61.618,104.889 61.833,104.908 62.126,104.908L62.126,105.114C61.317,105.097 60.699,105.088 60.272,105.088C60.172,105.088 59.635,105.097 58.66,105.114L58.66,104.934C58.853,104.925 58.993,104.902 59.079,104.864C59.166,104.826 59.224,104.755 59.255,104.653C59.286,104.55 59.301,104.386 59.301,104.161L59.301,99.698C59.301,99.472 59.285,99.308 59.253,99.206C59.22,99.103 59.161,99.033 59.075,98.995C58.988,98.957 58.85,98.933 58.66,98.925L58.66,98.744Z" style="fill:rgb(82,37,0);fill-rule:nonzero;"/>
                <path d="M69.304,102.777C69.287,102.991 69.278,103.266 69.278,103.603C69.278,104.215 69.298,104.719 69.339,105.114C68.932,105.097 68.245,105.088 67.279,105.088C65.876,105.088 64.826,105.097 64.129,105.114L64.129,104.934C64.323,104.925 64.462,104.902 64.549,104.864C64.635,104.826 64.694,104.755 64.725,104.653C64.755,104.55 64.771,104.386 64.771,104.161L64.771,99.698C64.771,99.472 64.755,99.308 64.722,99.206C64.69,99.103 64.631,99.033 64.544,98.995C64.458,98.957 64.32,98.933 64.129,98.925L64.129,98.744C64.826,98.762 65.876,98.771 67.279,98.771C68.161,98.771 68.787,98.762 69.159,98.744C69.118,99.307 69.098,99.81 69.098,100.256C69.098,100.534 69.106,100.751 69.124,100.906L68.918,100.906C68.812,100.209 68.612,99.709 68.318,99.406C68.024,99.102 67.671,98.951 67.261,98.951L67.143,98.951C66.979,98.951 66.86,98.964 66.787,98.99C66.714,99.017 66.663,99.069 66.635,99.146C66.608,99.224 66.594,99.348 66.594,99.518L66.594,101.82L66.686,101.82C66.9,101.82 67.092,101.759 67.264,101.639C67.435,101.519 67.576,101.369 67.688,101.187C67.799,101.005 67.874,100.821 67.912,100.633L68.118,100.633C68.095,100.985 68.083,101.276 68.083,101.508L68.087,101.912C68.087,102.169 68.106,102.596 68.144,103.19L67.938,103.19C67.9,102.965 67.824,102.762 67.712,102.582C67.599,102.402 67.455,102.26 67.279,102.156C67.103,102.052 66.906,102 66.686,102L66.594,102L66.594,104.341C66.594,104.514 66.608,104.638 66.635,104.714C66.663,104.791 66.714,104.842 66.787,104.868C66.86,104.895 66.979,104.908 67.143,104.908L67.442,104.908C67.658,104.908 67.876,104.839 68.094,104.701C68.312,104.564 68.511,104.336 68.691,104.018C68.871,103.7 69.007,103.287 69.098,102.777L69.304,102.777Z" style="fill:rgb(82,37,0);fill-rule:nonzero;"/>
                <path d="M75.152,102.777C75.134,102.991 75.125,103.266 75.125,103.603C75.125,104.215 75.146,104.719 75.187,105.114C74.78,105.097 74.093,105.088 73.126,105.088C71.724,105.088 70.674,105.097 69.977,105.114L69.977,104.934C70.17,104.925 70.31,104.902 70.396,104.864C70.483,104.826 70.541,104.755 70.572,104.653C70.603,104.55 70.618,104.386 70.618,104.161L70.618,99.698C70.618,99.472 70.602,99.308 70.57,99.206C70.538,99.103 70.478,99.033 70.392,98.995C70.305,98.957 70.167,98.933 69.977,98.925L69.977,98.744C70.674,98.762 71.724,98.771 73.126,98.771C74.008,98.771 74.635,98.762 75.007,98.744C74.966,99.307 74.945,99.81 74.945,100.256C74.945,100.534 74.954,100.751 74.971,100.906L74.765,100.906C74.66,100.209 74.46,99.709 74.165,99.406C73.871,99.102 73.519,98.951 73.109,98.951L72.99,98.951C72.826,98.951 72.708,98.964 72.634,98.99C72.561,99.017 72.511,99.069 72.483,99.146C72.455,99.224 72.441,99.348 72.441,99.518L72.441,101.82L72.533,101.82C72.747,101.82 72.94,101.759 73.111,101.639C73.282,101.519 73.424,101.369 73.535,101.187C73.646,101.005 73.721,100.821 73.759,100.633L73.966,100.633C73.942,100.985 73.93,101.276 73.93,101.508L73.935,101.912C73.935,102.169 73.954,102.596 73.992,103.19L73.785,103.19C73.747,102.965 73.672,102.762 73.559,102.582C73.446,102.402 73.302,102.26 73.126,102.156C72.951,102.052 72.753,102 72.533,102L72.441,102L72.441,104.341C72.441,104.514 72.455,104.638 72.483,104.714C72.511,104.791 72.561,104.842 72.634,104.868C72.708,104.895 72.826,104.908 72.99,104.908L73.289,104.908C73.506,104.908 73.723,104.839 73.941,104.701C74.16,104.564 74.359,104.336 74.539,104.018C74.719,103.7 74.854,103.287 74.945,102.777L75.152,102.777Z" style="fill:rgb(82,37,0);fill-rule:nonzero;"/>
            </g>
            <g transform="matrix(8.991555,0,0,8.991555,929.355174,1168.826574)">
                <path d="M0,1.137L0.4,0.728C0.447,0.681 0.471,0.628 0.471,0.569C0.471,0.509 0.447,0.456 0.4,0.409L0,0L-0.409,0.409C-0.456,0.456 -0.48,0.509 -0.48,0.569C-0.48,0.628 -0.456,0.681 -0.409,0.728L0,1.137Z" style="fill:rgb(82,37,0);fill-rule:nonzero;"/>
            </g>
            <g transform="matrix(8.991555,0,0,8.991555,982.616651,1194.622447)">
                <path d="M0,1.137L0.409,0.728C0.428,0.706 0.443,0.682 0.453,0.657C0.463,0.682 0.478,0.706 0.497,0.728L0.906,1.137L1.315,0.728C1.362,0.681 1.386,0.628 1.386,0.569C1.386,0.509 1.362,0.456 1.315,0.409L0.906,0L0.497,0.409C0.478,0.431 0.463,0.455 0.453,0.48C0.443,0.455 0.428,0.431 0.409,0.409L0,0L-0.409,0.409C-0.456,0.456 -0.48,0.509 -0.48,0.569C-0.48,0.628 -0.456,0.681 -0.409,0.728L0,1.137Z" style="fill:rgb(82,37,0);fill-rule:nonzero;"/>
            </g>
            <g transform="matrix(8.991555,0,0,8.991555,1041.163364,1168.826574)">
                <path d="M0,1.137L0.409,0.728C0.45,0.681 0.471,0.628 0.471,0.569C0.471,0.509 0.45,0.456 0.409,0.409L0,0L-0.409,0.409C-0.456,0.456 -0.48,0.509 -0.48,0.569C-0.48,0.628 -0.456,0.681 -0.409,0.728L0,1.137Z" style="fill:rgb(82,37,0);fill-rule:nonzero;"/>
            </g>
            <g transform="matrix(8.991555,0,0,8.991555,1096.188085,1167.78715)">
                <path d="M0,5.809C0,5.993 -0.067,6.151 -0.2,6.284C-0.333,6.417 -0.492,6.484 -0.675,6.484C-0.865,6.484 -1.026,6.417 -1.159,6.284C-1.292,6.151 -1.359,5.993 -1.359,5.809L-1.359,2.425C-1.359,2.241 -1.292,2.085 -1.159,1.954C-1.026,1.824 -0.865,1.759 -0.675,1.759C-0.492,1.759 -0.333,1.824 -0.2,1.954C-0.067,2.085 0,2.241 0,2.425L0,5.809ZM-17.879,5.8C-17.879,5.99 -17.946,6.15 -18.079,6.28C-18.212,6.41 -18.371,6.475 -18.554,6.475C-18.744,6.475 -18.905,6.41 -19.038,6.28C-19.172,6.15 -19.238,5.99 -19.238,5.8L-19.238,2.425C-19.238,2.241 -19.172,2.083 -19.038,1.95C-18.905,1.817 -18.744,1.75 -18.554,1.75C-18.371,1.75 -18.212,1.817 -18.079,1.95C-17.946,2.083 -17.879,2.241 -17.879,2.425L-17.879,5.8ZM-20.082,6.369C-21.593,6.494 -22.769,6.277 -23.042,5.826C-23.151,5.644 -23.189,5.446 -23.189,5.446C-23.274,5.004 -23.066,4.633 -22.978,4.494C-22.962,3.735 -23.06,3.151 -23.153,2.865C-23.23,2.628 -23.343,2.383 -23.343,2.383C-23.404,2.248 -23.434,2.177 -23.492,2.087C-23.652,1.845 -23.833,1.667 -24.034,1.555C-24.105,1.513 -24.179,1.492 -24.256,1.492C-24.428,1.492 -24.558,1.566 -24.647,1.714C-24.689,1.791 -24.709,1.865 -24.709,1.936C-24.709,2.108 -24.635,2.238 -24.487,2.327C-24.41,2.369 -24.333,2.389 -24.256,2.389C-24.197,2.389 -24.141,2.378 -24.088,2.354C-23.957,2.295 -23.871,2.194 -23.83,2.052C-23.812,2.011 -23.786,1.987 -23.75,1.981C-23.714,1.981 -23.688,1.996 -23.67,2.025C-23.581,2.191 -23.537,2.363 -23.537,2.54C-23.537,2.606 -23.543,2.671 -23.555,2.736C-23.596,2.979 -23.75,3.183 -24.016,3.349C-24.2,3.467 -24.292,3.63 -24.292,3.837L-24.292,3.89C-24.286,4.222 -24.23,4.548 -24.123,4.868C-24.011,5.217 -23.846,5.529 -23.63,5.805C-23.503,5.966 -23.387,6.074 -23.343,6.115C-23.157,6.285 -22.976,6.4 -22.84,6.475C-22.519,6.575 -22.167,6.664 -21.787,6.733C-20.516,6.963 -19.396,6.881 -18.554,6.733C-18.414,6.718 -18.24,6.686 -18.048,6.622C-17.823,6.546 -17.643,6.449 -17.512,6.365C-17.496,6.378 -17.482,6.392 -17.466,6.404C-17.339,6.505 -17.197,6.585 -17.04,6.644C-16.883,6.703 -16.725,6.733 -16.565,6.733L-15.526,6.733C-15.124,6.733 -14.772,6.611 -14.469,6.369C-14.34,6.486 -14.184,6.579 -13.998,6.644C-13.838,6.703 -13.678,6.733 -13.518,6.733L-11.44,6.733C-11.043,6.733 -10.692,6.61 -10.387,6.365C-10.374,6.376 -10.362,6.388 -10.347,6.4C-10.069,6.622 -9.767,6.733 -9.442,6.733L-6.12,6.733C-5.883,6.733 -5.661,6.687 -5.454,6.595C-5.315,6.534 -5.19,6.457 -5.074,6.367C-5.06,6.379 -5.047,6.392 -5.032,6.404C-4.756,6.623 -4.453,6.733 -4.121,6.733L-3.082,6.733C-2.614,6.733 -2.215,6.567 -1.883,6.235C-1.729,6.383 -1.549,6.503 -1.341,6.595C-1.134,6.687 -0.915,6.733 -0.684,6.733C-0.447,6.733 -0.225,6.688 -0.018,6.599C0.189,6.511 0.372,6.386 0.528,6.226C0.685,6.067 0.81,5.883 0.902,5.676C0.993,5.469 1.039,5.247 1.039,5.01L1.039,3.215C1.039,2.979 0.993,2.758 0.902,2.554C0.81,2.349 0.685,2.167 0.528,2.008C0.372,1.848 0.192,1.723 -0.009,1.634C-0.21,1.546 -0.42,1.501 -0.639,1.501C-0.9,1.501 -1.134,1.546 -1.341,1.634C-1.762,1.818 -2.07,2.126 -2.265,2.558C-2.36,2.771 -2.407,2.993 -2.407,3.224L-2.407,5.8C-2.407,5.984 -2.474,6.142 -2.607,6.275C-2.74,6.409 -2.899,6.475 -3.082,6.475L-4.121,6.475C-4.305,6.475 -4.397,6.395 -4.397,6.235L-4.397,3.215C-4.397,3.215 -4.442,2.758 -4.534,2.554C-4.626,2.349 -4.75,2.167 -4.907,2.008C-5.064,1.848 -5.246,1.722 -5.454,1.63C-5.661,1.538 -5.883,1.492 -6.12,1.492C-6.351,1.492 -6.573,1.54 -6.786,1.634C-7.218,1.83 -7.523,2.138 -7.701,2.558C-7.795,2.766 -7.843,3.008 -7.843,3.287C-7.843,3.488 -7.751,3.645 -7.567,3.757C-7.248,3.959 -7.088,4.234 -7.088,4.583C-7.088,4.755 -7.132,4.921 -7.221,5.081C-7.239,5.11 -7.26,5.125 -7.283,5.125L-7.328,5.125C-7.345,5.125 -7.36,5.104 -7.372,5.063C-7.413,4.915 -7.499,4.814 -7.63,4.761C-7.683,4.737 -7.739,4.725 -7.798,4.725C-7.875,4.725 -7.952,4.746 -8.029,4.788C-8.183,4.876 -8.26,5.004 -8.26,5.169C-8.26,5.247 -8.24,5.324 -8.198,5.4C-8.109,5.549 -7.979,5.622 -7.807,5.622C-7.736,5.622 -7.662,5.602 -7.585,5.56C-7.384,5.442 -7.203,5.263 -7.043,5.023C-6.883,4.783 -6.804,4.509 -6.804,4.201L-6.804,2.425C-6.804,2.241 -6.737,2.083 -6.604,1.95C-6.471,1.817 -6.309,1.75 -6.12,1.75C-5.936,1.75 -5.778,1.817 -5.645,1.95C-5.511,2.083 -5.445,2.241 -5.445,2.425L-5.445,5.8C-5.445,5.99 -5.511,6.15 -5.645,6.28C-5.778,6.41 -5.936,6.475 -6.12,6.475L-7.479,6.466L-8.402,6.475L-9.442,6.475C-9.625,6.475 -9.717,6.395 -9.717,6.235L-9.717,3.215L-10.49,3.66C-10.673,3.778 -10.765,3.938 -10.765,4.139L-10.765,5.8C-10.765,5.984 -10.83,6.142 -10.96,6.275C-11.091,6.409 -11.251,6.475 -11.44,6.475L-13.518,6.475C-13.708,6.475 -13.803,6.395 -13.803,6.235L-13.803,-1.154L-14.566,-0.71C-14.75,-0.592 -14.842,-0.432 -14.842,-0.231L-14.842,5.8C-14.842,5.99 -14.908,6.15 -15.042,6.28C-15.175,6.41 -15.336,6.475 -15.526,6.475L-16.565,6.475C-16.748,6.475 -16.84,6.395 -16.84,6.235L-16.84,3.215C-16.84,2.979 -16.885,2.757 -16.973,2.549C-17.062,2.342 -17.187,2.16 -17.346,2.003C-17.506,1.846 -17.688,1.722 -17.893,1.63C-18.097,1.538 -18.318,1.492 -18.554,1.492C-19.01,1.492 -19.412,1.663 -19.758,2.003C-20.104,2.344 -20.277,2.748 -20.277,3.215L-20.277,5.01C-20.289,5.165 -20.282,5.393 -20.168,5.621C-20.007,5.941 -19.727,6.075 -19.771,6.218C-19.787,6.27 -19.85,6.335 -20.082,6.369" style="fill:rgb(82,37,0);fill-rule:nonzero;"/>
            </g>
            <g transform="matrix(8.991555,0,0,8.991555,1287.952781,1229.931385)">
                <path d="M0,1.137L0.409,0.728C0.45,0.681 0.471,0.628 0.471,0.569C0.471,0.509 0.45,0.456 0.409,0.409L0,0L-0.409,0.409C-0.456,0.456 -0.48,0.509 -0.48,0.569C-0.48,0.628 -0.456,0.681 -0.409,0.728L0,1.137Z" style="fill:rgb(82,37,0);fill-rule:nonzero;"/>
            </g>
            <g transform="matrix(8.991555,0,0,8.991555,1178.348421,1201.340937)">
                <path d="M0,1.661C0,1.845 -0.067,2.003 -0.2,2.136C-0.333,2.269 -0.495,2.336 -0.684,2.336C-0.868,2.336 -1.026,2.269 -1.159,2.136C-1.292,2.003 -1.359,1.845 -1.359,1.661L-1.359,-1.723C-1.359,-1.907 -1.292,-2.063 -1.159,-2.194C-1.026,-2.324 -0.868,-2.389 -0.684,-2.389C-0.495,-2.389 -0.333,-2.324 -0.2,-2.194C-0.067,-2.063 0,-1.907 0,-1.723L0,1.661ZM1.039,2.096L1.039,-0.924C1.039,-1.397 0.869,-1.804 0.528,-2.145C0.188,-2.485 -0.216,-2.656 -0.684,-2.656C-0.915,-2.656 -1.136,-2.608 -1.346,-2.514C-1.556,-2.419 -1.738,-2.293 -1.892,-2.136C-2.046,-1.979 -2.17,-1.797 -2.265,-1.59C-2.36,-1.382 -2.407,-1.16 -2.407,-0.924L-2.407,0.862C-2.407,1.099 -2.36,1.321 -2.265,1.528C-2.17,1.735 -2.046,1.919 -1.892,2.078C-1.768,2.203 -1.625,2.306 -1.466,2.389C-1.655,2.437 -1.827,2.526 -1.981,2.656C-2.265,2.881 -2.407,3.171 -2.407,3.526L-2.407,4.317L-1.634,3.873C-1.451,3.754 -1.359,3.594 -1.359,3.393L-1.359,2.825C-1.359,2.665 -1.267,2.585 -1.084,2.585L-0.684,2.585C-0.287,2.585 0.063,2.463 0.368,2.22C0.382,2.232 0.394,2.245 0.409,2.256C0.681,2.475 0.986,2.585 1.323,2.585L1.323,2.336C1.134,2.33 1.039,2.25 1.039,2.096" style="fill:rgb(82,37,0);fill-rule:nonzero;"/>
            </g>
            <g transform="matrix(8.991555,0,0,8.991555,1268.991389,1170.356937)">
                <path d="M0,5.098C0,5.288 -0.067,5.447 -0.2,5.578C-0.333,5.708 -0.494,5.773 -0.684,5.773L-1.874,5.773C-1.708,5.661 -1.575,5.513 -1.474,5.329C-1.397,5.181 -1.359,5.018 -1.359,4.84L-1.359,1.723C-1.359,1.539 -1.292,1.381 -1.159,1.248C-1.026,1.114 -0.867,1.048 -0.684,1.048L-0.284,1.048C-0.095,1.048 0,1.125 0,1.279L0,5.098ZM3.098,2.849L3.098,4.963C3.098,5.147 3.033,5.305 2.903,5.438C2.772,5.572 2.612,5.638 2.423,5.638C2.233,5.638 1.039,5.696 1.039,5.542L1.039,1.98C1.039,1.625 0.903,1.338 0.631,1.119C0.358,0.9 0.053,0.79 -0.284,0.79L-0.684,0.79C-1.152,0.79 -1.554,0.959 -1.892,1.297C-2.022,1.427 -2.129,1.572 -2.212,1.732C-2.212,1.584 -2.149,1.424 -2.025,1.252C-1.913,1.098 -1.782,0.968 -1.634,0.861C-1.451,0.749 -1.359,0.592 -1.359,0.391L-1.359,-0.933L-2.132,-0.489C-2.315,-0.37 -2.407,-0.21 -2.407,-0.009L-2.407,5.098C-2.407,5.288 -2.474,5.447 -2.607,5.578C-2.74,5.708 -4.089,5.773 -4.272,5.773L-6.271,5.773C-6.46,5.773 -6.62,5.708 -6.75,5.578C-6.881,5.447 -6.946,5.29 -6.946,5.107L-6.946,1.723C-6.946,1.539 -6.881,1.381 -6.75,1.248C-6.62,1.114 -6.46,1.048 -6.271,1.048L-5.871,1.048C-5.687,1.048 -5.596,1.128 -5.596,1.288L-5.596,3.499C-5.596,3.807 -5.514,4.081 -5.351,4.321C-5.189,4.561 -5.006,4.74 -4.805,4.858C-4.734,4.9 -4.66,4.92 -4.583,4.92C-4.548,4.92 -4.491,4.91 -4.414,4.889C-4.337,4.869 -4.266,4.805 -4.201,4.698C-4.16,4.627 -4.139,4.553 -4.139,4.476C-4.139,4.435 -4.149,4.376 -4.17,4.299C-4.191,4.222 -4.254,4.151 -4.361,4.085C-4.438,4.044 -4.515,4.023 -4.592,4.023C-4.811,4.023 -4.953,4.136 -5.018,4.361C-5.03,4.402 -5.06,4.423 -5.107,4.423C-5.137,4.423 -5.16,4.408 -5.178,4.379C-5.267,4.219 -5.311,4.047 -5.311,3.863C-5.311,3.804 -5.297,3.696 -5.267,3.539C-5.237,3.382 -5.089,3.221 -4.823,3.055C-4.639,2.943 -4.548,2.786 -4.548,2.584L-4.548,1.98C-4.548,1.803 -4.586,1.64 -4.663,1.492C-4.817,1.196 -5.063,0.992 -5.4,0.879C-5.554,0.82 -5.711,0.79 -5.871,0.79L-6.271,0.79C-6.732,0.79 -7.135,0.959 -7.479,1.297C-7.822,1.634 -7.994,2.04 -7.994,2.513L-7.994,4.307C-7.994,4.645 -7.89,4.974 -7.683,5.293C-7.63,5.37 -7.603,5.435 -7.603,5.489C-7.603,5.536 -7.618,5.584 -7.647,5.631C-7.707,5.726 -7.787,5.773 -7.887,5.773L-8.758,5.773L-8.758,6.031L-0.684,6.031C-0.284,6.031 0.066,5.909 0.369,5.667C0.382,5.678 0.395,5.691 0.409,5.702C0.681,5.921 2.085,5.896 2.423,5.896C2.891,5.896 3.295,5.726 3.635,5.385C3.976,5.045 4.146,4.644 4.146,4.182L4.146,1.926L3.373,2.37C3.19,2.488 3.098,2.648 3.098,2.849" style="fill:rgb(82,37,0);fill-rule:nonzero;"/>
            </g>
            <g transform="matrix(8.991555,0,0,8.991555,1381.2042,1193.91571)">
                <path d="M0,1.039C0.127,1.113 0.265,1.15 0.413,1.15C0.579,1.15 0.742,1.106 0.902,1.017L1.745,0.528L1.523,0.395C1.494,0.377 1.464,0.368 1.434,0.368C1.411,0.368 1.384,0.377 1.354,0.395L0.679,0.786C0.65,0.804 0.617,0.812 0.582,0.812C0.505,0.812 0.449,0.78 0.413,0.715C0.389,0.673 0.378,0.635 0.378,0.599C0.378,0.534 0.407,0.481 0.466,0.439C0.502,0.416 0.549,0.389 0.608,0.36L0.555,0.386C0.567,0.38 0.586,0.37 0.613,0.355C0.639,0.34 0.676,0.318 0.724,0.288C0.771,0.259 0.795,0.215 0.795,0.155L0.795,-0.111L0.537,0.04C0.413,0.111 0.333,0.215 0.298,0.351C0.286,0.398 0.28,0.448 0.28,0.502C0.28,0.667 0.348,0.801 0.484,0.901C0.372,0.955 0.28,0.981 0.209,0.981C0.031,0.981 -0.102,0.898 -0.191,0.733C-0.226,0.667 -0.244,0.602 -0.244,0.537C-0.244,0.525 -0.238,0.517 -0.226,0.511L-0.2,0.519C-0.17,0.543 -0.138,0.555 -0.102,0.555C-0.049,0.555 -0.01,0.534 0.013,0.493C0.025,0.469 0.031,0.448 0.031,0.431C0.031,0.377 0.007,0.336 -0.04,0.306C-0.058,0.294 -0.075,0.288 -0.093,0.288C-0.152,0.288 -0.194,0.312 -0.218,0.36C-0.259,0.437 -0.28,0.514 -0.28,0.59C-0.28,0.644 -0.271,0.694 -0.253,0.741C-0.212,0.866 -0.127,0.965 0,1.039" style="fill:rgb(82,37,0);fill-rule:nonzero;"/>
            </g>
            <g transform="matrix(8.991555,0,0,8.991555,1423.571508,1202.579074)">
                <path d="M0,-0.604L0,1.51C0,1.694 -0.065,1.852 -0.195,1.985C-0.326,2.118 -0.486,2.185 -0.675,2.185C-0.859,2.185 -0.95,2.105 -0.95,1.945L-0.95,-3.047L-1.723,-2.602C-1.907,-2.484 -1.999,-2.324 -1.999,-2.123L-1.999,1.519C-1.999,1.702 -2.065,1.861 -2.198,1.994C-2.332,2.127 -2.49,2.194 -2.673,2.194L-5.613,2.194C-5.797,2.194 -5.889,2.114 -5.889,1.954L-5.889,0.346C-5.889,0.039 -5.97,-0.235 -6.133,-0.475C-6.296,-0.715 -6.478,-0.894 -6.679,-1.013C-6.756,-1.054 -6.83,-1.075 -6.901,-1.075C-7.067,-1.075 -7.197,-0.998 -7.292,-0.844C-7.334,-0.773 -7.354,-0.699 -7.354,-0.622C-7.354,-0.462 -7.277,-0.334 -7.123,-0.24C-7.046,-0.198 -6.969,-0.178 -6.892,-0.178C-6.839,-0.178 -6.783,-0.189 -6.724,-0.213C-6.594,-0.266 -6.508,-0.367 -6.466,-0.515C-6.454,-0.557 -6.425,-0.577 -6.377,-0.577C-6.348,-0.577 -6.324,-0.562 -6.306,-0.533C-6.223,-0.373 -6.182,-0.207 -6.182,-0.036C-6.182,0.314 -6.342,0.589 -6.661,0.79C-6.845,0.909 -6.937,1.069 -6.937,1.27C-6.937,1.448 -6.898,1.609 -6.821,1.754C-6.744,1.899 -6.642,2.022 -6.515,2.123C-6.388,2.224 -6.246,2.302 -6.089,2.358C-5.932,2.414 -5.773,2.443 -5.613,2.443L-2.673,2.443C-2.274,2.443 -1.924,2.322 -1.621,2.082C-1.609,2.093 -1.598,2.104 -1.585,2.114C-1.31,2.333 -1.007,2.443 -0.675,2.443C-0.207,2.443 0.197,2.272 0.537,1.932C0.878,1.591 1.048,1.19 1.048,0.728L1.048,-1.528L0.275,-1.084C0.092,-0.965 0,-0.805 0,-0.604" style="fill:rgb(82,37,0);fill-rule:nonzero;"/>
            </g>
            <g transform="matrix(8.991555,0,0,8.991555,1433.074683,1185.488825)">
                <path d="M0,-1.137L-0.409,-0.728C-0.432,-0.705 -0.45,-0.684 -0.462,-0.666C-0.468,-0.684 -0.483,-0.705 -0.506,-0.728L-0.915,-1.137L-1.323,-0.728C-1.365,-0.681 -1.386,-0.628 -1.386,-0.569C-1.386,-0.509 -1.365,-0.456 -1.323,-0.409L-0.915,0L-0.506,-0.409C-0.483,-0.432 -0.468,-0.453 -0.462,-0.471C-0.45,-0.453 -0.432,-0.432 -0.409,-0.409L0,0L0.409,-0.409C0.45,-0.456 0.471,-0.509 0.471,-0.569C0.471,-0.628 0.45,-0.681 0.409,-0.728L0,-1.137Z" style="fill:rgb(82,37,0);fill-rule:nonzero;"/>
            </g>
            <g transform="matrix(8.991555,0,0,8.991555,1543.045,1201.219551)">
                <path d="M0,1.67C0,1.854 -0.067,2.012 -0.2,2.145C-0.333,2.278 -0.494,2.345 -0.684,2.345C-0.867,2.339 -1.026,2.271 -1.159,2.141C-1.292,2.011 -1.359,1.854 -1.359,1.67L-1.359,-1.705C-1.359,-1.895 -1.292,-2.054 -1.159,-2.185C-1.026,-2.315 -0.865,-2.38 -0.675,-2.38C-0.492,-2.38 -0.333,-2.315 -0.2,-2.185C-0.067,-2.054 0,-1.895 0,-1.705L0,1.67ZM-4.397,1.661C-4.397,1.845 -4.463,2.003 -4.596,2.136C-4.73,2.27 -4.888,2.336 -5.072,2.336C-5.261,2.336 -5.422,2.27 -5.556,2.136C-5.689,2.003 -5.755,1.845 -5.755,1.661L-5.755,0.009C-5.755,-0.18 -5.689,-0.34 -5.556,-0.471C-5.422,-0.601 -5.261,-0.666 -5.072,-0.666C-4.888,-0.666 -4.73,-0.601 -4.596,-0.471C-4.463,-0.34 -4.397,-0.18 -4.397,0.009L-4.397,1.661ZM-8.793,1.661C-8.793,1.839 -8.86,1.996 -8.993,2.132C-9.126,2.268 -9.288,2.336 -9.477,2.336C-9.661,2.336 -9.819,2.27 -9.952,2.136C-10.085,2.003 -10.152,1.845 -10.152,1.661L-10.152,-1.714C-10.152,-1.898 -10.085,-2.056 -9.952,-2.189C-9.819,-2.322 -9.661,-2.389 -9.477,-2.389C-9.288,-2.389 -9.126,-2.324 -8.993,-2.194C-8.86,-2.063 -8.793,-1.903 -8.793,-1.714L-8.793,1.661ZM0.533,-2.131C0.195,-2.469 -0.207,-2.638 -0.675,-2.638C-0.906,-2.638 -1.127,-2.59 -1.337,-2.496C-1.547,-2.401 -1.729,-2.277 -1.883,-2.123C-2.037,-1.969 -2.161,-1.788 -2.256,-1.581C-2.351,-1.373 -2.398,-1.151 -2.398,-0.915L-2.398,0.879C-2.398,1.11 -2.351,1.33 -2.256,1.537C-2.22,1.614 -2.185,1.682 -2.149,1.741C-2.114,1.8 -2.081,1.857 -2.052,1.91C-2.022,1.963 -2.007,2.013 -2.007,2.061C-2.007,2.102 -2.022,2.147 -2.052,2.194C-2.093,2.271 -2.155,2.318 -2.238,2.336L-3.073,2.336C-3.263,2.336 -3.357,2.256 -3.357,2.096L-3.357,0.994C-3.352,0.931 -3.348,0.866 -3.348,0.8C-3.348,-0.349 -3.352,-0.953 -3.357,-1.012C-3.381,-1.45 -3.55,-1.826 -3.864,-2.14C-4.213,-2.478 -4.616,-2.647 -5.072,-2.647C-5.528,-2.647 -5.929,-2.476 -6.275,-2.136C-6.621,-1.795 -6.795,-1.391 -6.795,-0.924L-6.795,-0.479L-6.031,-0.924C-5.847,-1.036 -5.755,-1.196 -5.755,-1.403L-5.755,-1.714C-5.755,-1.898 -5.689,-2.056 -5.556,-2.189C-5.422,-2.322 -5.261,-2.389 -5.072,-2.389C-4.888,-2.389 -4.73,-2.322 -4.596,-2.189C-4.463,-2.056 -4.397,-1.898 -4.397,-1.714L-4.397,-1.252C-4.403,-1.163 -4.438,-1.086 -4.503,-1.021C-4.568,-0.956 -4.648,-0.924 -4.743,-0.924L-5.072,-0.924C-5.308,-0.924 -5.531,-0.876 -5.738,-0.781C-6.158,-0.604 -6.466,-0.299 -6.661,0.133C-6.75,0.347 -6.795,0.592 -6.795,0.871C-6.795,1.173 -6.712,1.466 -6.546,1.75L-6.448,1.919C-6.419,1.966 -6.404,2.013 -6.404,2.061C-6.404,2.102 -6.416,2.147 -6.439,2.194C-6.505,2.289 -6.587,2.336 -6.688,2.336L-7.47,2.336C-7.659,2.336 -7.754,2.256 -7.754,2.096L-7.754,-0.924C-7.754,-1.16 -7.798,-1.382 -7.887,-1.59C-7.976,-1.797 -8.1,-1.979 -8.26,-2.136C-8.42,-2.293 -8.604,-2.416 -8.811,-2.505C-9.018,-2.593 -9.24,-2.638 -9.477,-2.638C-9.945,-2.638 -10.347,-2.466 -10.685,-2.123C-11.022,-1.779 -11.191,-1.379 -11.191,-0.924L-11.191,0.871C-11.191,1.102 -11.147,1.321 -11.058,1.528C-10.874,1.948 -10.567,2.256 -10.134,2.452C-9.927,2.546 -9.708,2.594 -9.477,2.594L-9.148,2.594C-9.054,2.594 -8.974,2.626 -8.909,2.691C-8.843,2.757 -8.808,2.834 -8.802,2.922C-8.832,3.414 -9.063,3.769 -9.495,3.988C-9.672,4.059 -9.862,4.095 -10.063,4.095C-10.075,4.095 -10.142,4.092 -10.263,4.086C-10.384,4.08 -10.534,4.03 -10.712,3.935C-10.735,3.917 -10.747,3.899 -10.747,3.882L-10.747,3.846C-10.747,3.828 -10.729,3.813 -10.694,3.802C-10.564,3.76 -10.472,3.68 -10.418,3.562C-10.401,3.514 -10.392,3.464 -10.392,3.411C-10.392,3.346 -10.41,3.278 -10.445,3.207C-10.528,3.07 -10.641,3.002 -10.783,3.002C-10.854,3.002 -10.925,3.02 -10.996,3.056C-11.132,3.132 -11.2,3.251 -11.2,3.411C-11.2,3.476 -11.182,3.541 -11.147,3.606C-11.04,3.79 -10.877,3.954 -10.658,4.099C-10.439,4.244 -10.194,4.317 -9.921,4.317C-9.607,4.305 -9.323,4.228 -9.068,4.086C-8.79,3.932 -8.553,3.731 -8.358,3.482C-8.162,3.233 -8.013,2.952 -7.909,2.638C-7.898,2.603 -7.887,2.568 -7.877,2.533C-7.746,2.573 -7.611,2.594 -7.47,2.594L-5.072,2.594C-4.835,2.594 -4.613,2.548 -4.405,2.456C-4.267,2.395 -4.142,2.317 -4.028,2.226C-4.013,2.239 -3.999,2.253 -3.984,2.265C-3.708,2.484 -3.405,2.594 -3.073,2.594L-0.675,2.594C-0.207,2.594 0.195,2.425 0.533,2.087C0.87,1.75 1.039,1.347 1.039,0.879L1.039,-0.915C1.039,-1.388 0.87,-1.794 0.533,-2.131Z" style="fill:rgb(82,37,0);fill-rule:nonzero;"/>
            </g>
            <g transform="matrix(8.991555,0,0,8.991555,1532.903425,1165.122053)">
                <path d="M0,1.137L0.409,0.728C0.426,0.705 0.441,0.681 0.453,0.657C0.465,0.681 0.48,0.705 0.497,0.728L0.906,1.137L1.315,0.728C1.362,0.681 1.386,0.628 1.386,0.569C1.386,0.509 1.362,0.453 1.315,0.4L0.906,0L0.497,0.4C0.48,0.424 0.465,0.45 0.453,0.48C0.441,0.45 0.426,0.424 0.409,0.4L0,0L-0.409,0.4C-0.456,0.453 -0.48,0.509 -0.48,0.569C-0.48,0.628 -0.456,0.681 -0.409,0.728L0,1.137Z" style="fill:rgb(82,37,0);fill-rule:nonzero;"/>
            </g>
            <g transform="matrix(7.03348,0,0,7.03348,647.130504,766.354427)">
                <path d="M0,60.946L0,62.168C0,63.488 -1.07,64.557 -2.389,64.557L-57.745,64.557C-59.064,64.557 -60.134,63.488 -60.134,62.168L-60.134,16.097C-60.134,15.969 -60.124,15.842 -60.103,15.716C-59.748,13.538 -58.453,7.623 -53.273,2.544C-50.201,-0.468 -46.865,-2.105 -44.222,-3.002C-42.429,-3.611 -40.672,-2.002 -41.129,-0.165C-41.329,0.638 -41.928,1.282 -42.717,1.532C-43.961,1.927 -45.358,2.535 -46.756,3.483C-52.564,7.424 -53.749,14.099 -53.994,15.886C-54.009,16 -54.016,16.113 -54.015,16.227C-53.918,29.546 -53.82,42.865 -53.722,56.185C-53.712,57.498 -52.645,58.557 -51.333,58.557L-2.389,58.557C-1.07,58.557 0,59.627 0,60.946" style="fill:rgb(82,37,0);fill-rule:nonzero;"/>
            </g>
            <g transform="matrix(7.03348,0,0,7.03348,641.65705,927.506216)">
                <path d="M0,-5.307C-1.285,-6.527 -2.817,-6.99 -4.447,-7.514C-2.114,-7.836 0.051,-6.079 1.172,-4.137L0,-5.307ZM-0.218,-0.579C-1.247,4.661 -7.041,2.99 -7.041,2.99C-7.397,2.323 -8.062,0.863 -8.028,-1.093C-7.996,-2.882 -7.394,-4.219 -7.041,-4.88C-3.327,-6.128 0.378,-3.624 -0.218,-0.579M-31.693,11.201C-44.323,6.787 -42.998,-13.316 -29.029,-14.221C-24.493,-14.516 -21.342,-13.381 -18.156,-10.242C-8.723,-0.95 -19.15,15.585 -31.693,11.201M-36.255,13.936L-32.632,15.305C-28.646,16.648 -23.643,15.774 -18.332,14.925C-26.203,18.819 -32.996,17.298 -36.255,13.936M-17.962,-17.114L-20.847,-18.441C-24.014,-19.77 -27.834,-19.359 -31.896,-18.985C-26.034,-21.679 -20.686,-20.04 -17.962,-17.114M-2.097,-7.38C-4.718,-8.552 -8.049,-7.747 -8.852,-7.554C-9.002,-7.517 -9.125,-7.485 -9.208,-7.462C-13.535,-19.279 -26.211,-24.516 -37.337,-17.733C-46.444,-12.181 -49.313,-0.364 -43.918,8.707C-41.544,12.699 -36.229,16.79 -31.637,17.719C-24.276,19.209 -17.315,16.112 -12.864,10.294C-12.559,9.897 -12.358,9.294 -12.022,8.825C-11.43,7.998 -10.567,7.208 -10.274,6.22C-8.645,8.9 -4.926,7.773 -3.335,7.386C-2.929,7.287 1.905,5.351 2.317,0.423C2.615,-3.133 0.435,-6.248 -2.097,-7.38" style="fill:rgb(82,37,0);fill-rule:nonzero;"/>
            </g>
            <g transform="matrix(7.03348,0,0,7.03348,615.423578,1155.478873)">
                <path d="M0,-19.621L-0.13,-19.97L-2.666,-20.683C-2.286,-20.778 0.037,-20.452 0.155,-20.311C0.19,-20.269 0.31,-19.553 0,-19.621M0.511,-20.843C0.226,-21.179 -3.211,-21.101 -3.782,-20.822C-4.784,-20.334 -5.94,-18.081 -6.68,-17.147C-12.326,-10.009 -22.114,-7.606 -30.448,-11.294C-34.416,-13.05 -36.996,-16.19 -40.069,-19.086C-40.186,-18.727 -39.58,-18.093 -39.359,-17.84C-36.173,-14.182 -31.975,-10.834 -27.187,-9.667C-27.143,-9.352 -27.587,-9.494 -27.766,-9.532C-28.912,-9.781 -30.518,-10.356 -31.571,-10.882C-35.163,-12.676 -37.737,-15.696 -40.606,-18.369C-41.053,-18.786 -41.811,-20.249 -42.47,-19.535C-43.81,-18.088 -41.695,-12.959 -40.9,-11.325C-34.798,1.229 -15.893,1.558 -6.772,-7.822C-4.582,-10.075 0.269,-16.664 0.527,-19.711C0.558,-20.082 0.555,-20.475 0.511,-20.843" style="fill:rgb(82,37,0);fill-rule:nonzero;"/>
            </g>
            <g transform="matrix(7.03348,0,0,7.03348,738.92515,1348.801094)">
                <path d="M0,-83.616L-0.55,0L-1.1,-83.616L0,-83.616Z" style="fill:rgb(82,37,0);fill-rule:nonzero;"/>
            </g>
            <g transform="matrix(7.03348,0,0,7.03348,447.797472,862.088525)">
                <path d="M0,13.997C-2.39,14.305 -3.006,11.916 -3.006,11.916C-3.006,11.916 1.079,11.916 0,13.997M1.576,13.515C1.528,13.049 2.114,12.165 2.177,11.511C2.517,7.975 -1.3,7.363 -2.325,4.646C-2.799,3.391 -2.655,2.05 -2.655,2.05C-2.621,1.169 -2.446,0.447 -2.291,-0.046C-2.158,-0.392 -2.046,-0.8 -2.214,-0.945C-2.578,-1.261 -4.14,-0.219 -4.967,0.644C-6.951,2.715 -7.332,6.49 -6.15,9.475C-5.124,12.062 -2.241,14.862 0.619,15.184C1.268,15.258 2.15,15.184 2.832,15.184C2.846,15.184 3.097,15.064 3.083,15.033C2.694,14.668 1.633,14.093 1.576,13.515" style="fill:rgb(82,37,0);fill-rule:nonzero;"/>
            </g>
            <g transform="matrix(7.03348,0,0,7.03348,451.7109,965.375173)">
                <path d="M0,-15.254C0,-15.254 3.605,-15.099 4.452,-12.557C5.3,-10.013 0,-15.254 0,-15.254M6.95,-10.105C5.925,-12.691 3.042,-15.491 0.182,-15.813C-0.467,-15.886 -1.349,-15.813 -2.031,-15.813C-2.045,-15.813 -2.295,-15.692 -2.282,-15.662C-1.893,-15.296 -0.832,-14.722 -0.775,-14.144C-0.727,-13.677 -1.313,-12.793 -1.376,-12.14C-1.716,-8.604 2.101,-7.993 3.126,-5.275C3.6,-4.02 3.456,-2.679 3.456,-2.679C3.423,-1.797 3.247,-1.076 3.092,-0.582C2.959,-0.237 2.847,0.171 3.014,0.316C3.379,0.632 4.941,-0.41 5.768,-1.273C7.752,-3.343 8.133,-7.118 6.95,-10.105" style="fill:rgb(82,37,0);fill-rule:nonzero;"/>
            </g>
            <g transform="matrix(7.03348,0,0,7.03348,597.431234,1103.468402)">
                <path d="M0,5.992C-0.854,4.921 -0.882,3.008 -0.356,1.793C0.25,0.39 1.649,-0.752 3.014,-0.781C3.582,-0.793 4.459,-0.618 4.475,-0.39C4.483,-0.285 4.307,-0.185 4.147,-0.113C3.928,0.001 3.627,0.184 3.318,0.47C3.318,0.47 2.819,0.873 2.556,1.454C1.986,2.714 3.065,4.205 1.761,5.28C1.52,5.479 1.025,5.58 0.884,5.752C0.709,5.966 0.872,6.517 0.88,6.771C0.875,6.785 0.75,6.742 0.745,6.737C0.515,6.507 0.194,6.235 0,5.992ZM-0.12,3.672C-0.12,3.672 -0.717,4.684 0.191,5.384C1.255,5.047 -0.12,3.672 -0.12,3.672Z" style="fill:rgb(82,37,0);fill-rule:nonzero;"/>
            </g>
            <g transform="matrix(7.03348,0,0,7.03348,636.329893,1149.428674)">
                <path d="M0,-5.992C0.854,-4.921 0.882,-3.008 0.356,-1.793C-0.25,-0.39 -1.649,0.752 -3.014,0.781C-3.582,0.793 -4.459,0.618 -4.475,0.39C-4.483,0.285 -4.307,0.185 -4.147,0.113C-3.928,-0.001 -3.627,-0.184 -3.318,-0.47C-3.318,-0.47 -2.819,-0.873 -2.556,-1.454C-1.986,-2.714 -3.065,-4.205 -1.761,-5.28C-1.52,-5.479 -1.025,-5.58 -0.884,-5.752C-0.709,-5.966 -0.872,-6.517 -0.88,-6.771C-0.875,-6.785 -0.75,-6.742 -0.745,-6.737C-0.515,-6.507 -0.194,-6.235 0,-5.992ZM-0.25,-5.865C-0.25,-5.865 -0.23,-2.317 0.341,-3.459C0.911,-4.6 -0.25,-5.865 -0.25,-5.865Z" style="fill:rgb(82,37,0);fill-rule:nonzero;"/>
            </g>
            <path d="M1600.445,1041.645L1600.445,951.05C1600.445,945.646 1602.908,941.354 1607.835,938.176L1628.338,926.494L1628.338,1060.003C1628.338,1064.294 1630.881,1066.44 1635.968,1066.44L1635.968,1073.354C1626.908,1073.354 1618.723,1070.453 1611.411,1064.652C1610.986,1064.314 1610.573,1063.97 1610.172,1063.62C1603.687,1057.951 1600.445,1050.627 1600.445,1041.645Z" style="fill:rgb(82,37,0);"/>
            <path d="M1465.028,1072.835L1465.028,1073.592C1465.028,1079.791 1463.796,1085.672 1461.333,1091.235C1458.869,1096.797 1455.531,1101.685 1451.319,1105.897C1447.107,1110.109 1442.18,1113.446 1436.538,1115.91C1430.896,1118.374 1424.975,1119.605 1418.776,1119.605C1412.578,1119.605 1406.657,1118.374 1401.015,1115.91C1395.373,1113.446 1390.485,1110.069 1386.353,1105.778C1377.293,1096.718 1372.763,1086.069 1372.763,1073.831L1372.763,1041.884C1372.763,1036.48 1375.147,1032.188 1379.916,1029.01C1388.657,1023.765 1393.028,1016.612 1393.028,1007.553C1393.028,1002.626 1391.836,998.016 1389.452,993.725C1388.975,992.93 1388.339,992.533 1387.545,992.533L1386.591,992.533C1386.114,992.533 1385.637,993.089 1385.161,994.202C1384.048,998.175 1381.743,1000.877 1378.247,1002.308C1376.816,1002.944 1375.306,1003.261 1373.717,1003.261C1371.651,1003.261 1369.585,1002.705 1367.518,1001.593C1363.545,999.208 1361.558,995.791 1361.558,991.341C1361.558,989.275 1362.114,987.288 1363.227,985.381C1365.611,981.248 1369.108,979.182 1373.717,979.182C1375.624,979.182 1377.611,979.738 1379.677,980.851C1385.081,984.03 1389.929,988.838 1394.22,995.275C1398.512,1001.712 1400.657,1009.063 1400.657,1017.328L1400.657,1094.811C1400.657,1099.738 1402.445,1103.99 1406.021,1107.566C1409.598,1111.142 1413.849,1112.93 1418.776,1112.93C1423.704,1112.93 1427.955,1111.142 1431.531,1107.566C1435.107,1103.99 1436.896,1099.738 1436.896,1094.811L1436.896,991.818C1436.896,986.414 1439.359,982.202 1444.286,979.182L1465.028,967.262L1465.028,1060.48C1465.028,1064.612 1467.571,1066.678 1472.657,1066.678C1477.743,1066.678 1482.034,1064.89 1485.531,1061.314C1489.028,1057.738 1490.776,1053.486 1490.776,1048.559L1490.776,991.818C1490.776,986.414 1493.24,982.122 1498.167,978.944L1518.908,967.023L1518.908,1027.579C1518.908,1039.977 1514.339,1050.745 1505.2,1059.884C1496.061,1069.023 1485.213,1073.592 1472.657,1073.592C1470.049,1073.592 1467.506,1073.34 1465.028,1072.835Z" style="fill:rgb(82,37,0);"/>
            <path d="M1223.519,1060.241C1223.519,1064.533 1226.062,1066.678 1231.148,1066.678L1270.724,1066.678C1276.128,1066.678 1281.214,1065.645 1285.982,1063.579C1295.678,1059.288 1302.591,1052.294 1306.724,1042.599C1308.79,1037.831 1309.823,1032.745 1309.823,1027.341L1309.823,957.964C1309.823,952.878 1308.035,948.586 1304.459,945.089C1300.883,941.593 1296.631,939.844 1291.704,939.844C1288.525,939.844 1285.585,940.56 1282.883,941.99C1273.505,947.394 1266.592,951.407 1262.141,954.03C1257.691,956.652 1254.592,958.401 1252.843,959.275C1251.095,960.149 1249.744,960.983 1248.79,961.778L1248.79,937.699C1248.79,932.295 1251.254,928.083 1256.181,925.063L1310.777,893.355C1313.32,891.924 1315.783,891.209 1318.168,891.209C1320.711,891.209 1323.174,891.924 1325.558,893.355C1330.326,895.898 1334.856,897.169 1339.148,897.169C1341.532,897.169 1343.836,896.772 1346.061,895.977C1352.419,893.593 1357.426,889.54 1361.081,883.818L1361.32,882.626C1361.32,881.196 1360.604,880.48 1359.174,880.48L1358.459,880.48C1357.346,880.798 1356.234,880.957 1355.121,880.957C1352.419,880.957 1349.955,880.083 1347.73,878.335C1344.71,876.11 1343.201,873.01 1343.201,869.037C1343.201,865.699 1344.353,862.838 1346.657,860.454C1348.962,858.07 1351.783,856.878 1355.121,856.878C1358.459,856.878 1361.32,858.07 1363.704,860.454C1366.088,862.838 1367.28,865.699 1367.28,869.037C1367.28,874.918 1365.532,881.355 1362.035,888.348C1358.538,895.341 1353.214,900.984 1346.061,905.275L1321.267,919.58L1320.79,920.056C1320.631,920.215 1320.472,920.295 1320.313,920.295L1297.664,933.407C1307.519,934.52 1316.419,938.891 1324.366,946.52C1333.267,955.738 1337.717,966.626 1337.717,979.182L1337.717,995.394C1337.717,1004.93 1336.207,1014.308 1333.187,1023.526C1330.167,1032.745 1325.757,1041.089 1319.956,1048.559C1314.154,1056.029 1307.081,1062.069 1298.737,1066.678C1290.393,1071.288 1281.055,1073.592 1270.724,1073.592L1231.148,1073.592C1227.384,1073.592 1223.756,1073.067 1220.262,1072.015C1219.976,1072.998 1219.671,1073.98 1219.347,1074.963C1216.565,1083.399 1212.552,1090.959 1207.307,1097.642C1202.062,1104.327 1195.704,1109.739 1188.234,1113.876C1181.4,1117.696 1173.771,1119.605 1165.347,1119.605C1158.036,1119.605 1151.44,1117.671 1145.559,1113.802C1139.678,1109.935 1135.307,1105.555 1132.446,1100.663C1131.493,1098.925 1131.016,1097.187 1131.016,1095.451C1131.016,1091.19 1132.844,1088.032 1136.499,1085.978C1138.407,1085.032 1140.314,1084.559 1142.221,1084.559C1146.036,1084.559 1149.056,1086.387 1151.281,1090.043C1152.234,1091.95 1152.711,1093.778 1152.711,1095.526C1152.711,1096.956 1152.473,1098.307 1151.996,1099.579C1150.566,1102.758 1148.102,1104.903 1144.605,1106.016C1143.652,1106.334 1143.175,1106.731 1143.175,1107.208L1143.175,1108.162C1143.175,1108.661 1143.493,1109.159 1144.128,1109.655C1148.897,1112.315 1152.91,1113.645 1156.168,1113.645L1161.532,1113.645C1166.936,1113.645 1172.022,1112.698 1176.791,1110.803C1188.393,1104.957 1194.592,1095.476 1195.387,1082.361C1195.228,1079.992 1194.274,1077.938 1192.526,1076.2C1190.777,1074.461 1188.632,1073.592 1186.089,1073.592L1177.267,1073.592C1171.069,1073.592 1165.188,1072.321 1159.625,1069.778C1148.023,1064.533 1139.758,1056.268 1134.831,1044.983C1132.446,1039.42 1131.254,1033.539 1131.254,1027.341L1131.254,979.182C1131.254,966.944 1135.784,956.215 1144.844,946.997C1153.903,937.778 1164.711,933.169 1177.267,933.169C1183.625,933.169 1189.585,934.362 1195.148,936.749C1200.711,939.135 1205.638,942.438 1209.93,946.658C1214.221,950.875 1217.559,955.768 1219.943,961.339C1222.327,966.906 1223.519,972.874 1223.519,979.242L1223.519,1060.241ZM1195.625,957.964C1195.625,952.878 1193.837,948.586 1190.261,945.089C1186.685,941.593 1182.353,939.844 1177.267,939.844C1172.34,939.844 1168.089,941.633 1164.513,945.209C1160.936,948.785 1159.148,953.036 1159.148,957.964L1159.148,1048.559C1159.148,1053.486 1160.936,1057.738 1164.513,1061.314C1168.089,1064.89 1172.34,1066.678 1177.267,1066.678C1182.353,1066.678 1186.685,1064.851 1190.261,1061.195C1193.837,1057.539 1195.625,1053.327 1195.625,1048.559L1195.625,957.964Z" style="fill:rgb(82,37,0);"/>
            <path d="M992.738,1073.592C988.447,1073.592 984.195,1072.837 979.983,1071.327C975.772,1069.817 971.917,1067.712 968.421,1065.01C960.95,1058.97 957.215,1051.182 957.215,1041.645L957.215,946.282C957.215,944.215 956.619,942.626 955.427,941.513C954.235,940.401 952.447,939.844 950.063,939.844C944.818,939.844 940.407,941.593 936.831,945.089C933.255,948.586 931.467,952.798 931.467,957.725L931.467,1027.341C931.467,1033.698 930.275,1039.659 927.891,1045.222C922.646,1056.824 914.381,1065.01 903.096,1069.778C897.533,1072.321 891.573,1073.592 885.216,1073.592C874.726,1073.592 865.308,1071.288 856.964,1066.678C848.62,1062.069 841.547,1056.029 835.746,1048.559C829.944,1041.089 825.494,1032.745 822.395,1023.526C819.295,1014.308 817.746,1005.01 817.746,995.632C817.746,992.93 818.381,990.387 819.653,988.003C820.924,985.619 822.752,983.871 825.136,982.758C833.878,977.354 838.249,970.123 838.249,961.063C838.249,956.295 837.057,951.685 834.673,947.235C834.196,946.44 833.481,946.043 832.527,946.043C831.573,946.202 830.858,946.758 830.381,947.712C829.269,951.685 826.964,954.387 823.468,955.818C821.878,956.613 820.289,957.01 818.699,957.01C816.792,957.01 814.805,956.454 812.739,955.341C808.766,952.957 806.779,949.46 806.779,944.851C806.779,942.785 807.335,940.798 808.448,938.891C810.991,934.758 814.408,932.692 818.699,932.692C820.766,932.692 822.832,933.248 824.898,934.361C830.302,937.54 835.15,942.388 839.441,948.904C843.732,955.421 845.878,962.732 845.878,970.838L845.878,1026.626C845.878,1032.188 846.911,1037.433 848.977,1042.361C851.044,1047.288 853.825,1051.5 857.322,1054.996C860.818,1058.493 864.991,1061.274 869.838,1063.341C874.686,1065.407 879.812,1066.44 885.216,1066.44C890.302,1066.44 894.593,1064.692 898.09,1061.195C901.586,1057.698 903.335,1053.407 903.335,1048.321L903.335,978.944C903.335,972.586 904.567,966.666 907.03,961.182C909.494,955.699 912.831,950.811 917.043,946.52C921.255,942.229 926.143,938.891 931.705,936.507C937.268,934.123 943.229,932.931 949.586,932.931C953.878,932.931 958.169,933.686 962.46,935.195C966.752,936.705 970.606,938.811 974.023,941.513C977.44,944.215 980.142,947.553 982.129,951.527C984.116,955.5 985.109,959.95 985.109,964.877L985.109,1060.48C985.109,1064.612 987.652,1066.678 992.738,1066.678L1015.149,1066.678C1017.374,1066.202 1019.043,1064.93 1020.155,1062.864C1020.95,1061.592 1021.348,1060.4 1021.348,1059.288C1021.348,1058.016 1020.95,1056.665 1020.155,1055.235C1019.361,1053.804 1018.487,1052.294 1017.533,1050.705C1016.579,1049.116 1015.626,1047.288 1014.672,1045.222C1012.129,1039.659 1010.857,1033.778 1010.857,1027.579L1010.857,979.42C1010.857,973.063 1012.129,967.103 1014.672,961.54C1017.215,955.977 1020.553,951.129 1024.685,946.997C1028.818,942.864 1033.705,939.527 1039.347,936.984C1044.99,934.441 1050.91,933.169 1057.109,933.169C1069.665,933.169 1080.473,937.699 1089.533,946.758C1098.592,955.818 1103.122,966.705 1103.122,979.42L1103.122,1027.579C1103.122,1040.135 1098.592,1050.943 1089.533,1060.003C1080.473,1069.063 1069.665,1073.592 1057.109,1073.592L992.738,1073.592ZM1056.871,1066.917C1061.957,1066.917 1066.288,1065.129 1069.864,1061.553C1073.44,1057.976 1075.228,1053.725 1075.228,1048.798L1075.228,958.202C1075.228,953.116 1073.44,948.825 1069.864,945.328C1066.288,941.831 1062.036,940.083 1057.109,940.083C1052.023,940.083 1047.692,941.835 1044.116,945.339C1040.539,948.843 1038.751,953.142 1038.751,958.236L1038.751,1049.003C1038.751,1053.94 1040.539,1058.16 1044.116,1061.664C1047.692,1065.166 1051.943,1066.917 1056.871,1066.917Z" style="fill:rgb(82,37,0);"/>
        </g>
    </g>
</svg>
