<?xml version="1.0" encoding="UTF-8" standalone="no"?>
<!DOCTYPE svg PUBLIC "-//W3C//DTD SVG 1.1//EN" "http://www.w3.org/Graphics/SVG/1.1/DTD/svg11.dtd">
<svg width="100%" height="100%" viewBox="0 0 218 275" version="1.1" xmlns="http://www.w3.org/2000/svg" xmlns:xlink="http://www.w3.org/1999/xlink" xml:space="preserve" xmlns:serif="http://www.serif.com/" style="fill-rule:evenodd;clip-rule:evenodd;stroke-linejoin:round;stroke-miterlimit:2;">
    <g transform="matrix(1,0,0,1,-245.638986,-9.520218)">
        <g transform="matrix(1,0,0,1,-955.142773,-1764.163963)">
            <g transform="matrix(0.501702,0,0,0.501702,1088.310597,1400.258451)">
                <g transform="matrix(7.03348,0,0,7.03348,115.592163,550.92387)">
                    <path d="M18.883,98.925C18.666,98.933 18.508,98.957 18.41,98.995C18.312,99.033 18.245,99.103 18.208,99.206C18.172,99.308 18.153,99.472 18.153,99.698L18.153,104.341C18.153,104.511 18.165,104.635 18.188,104.712C18.212,104.79 18.254,104.842 18.316,104.868C18.377,104.895 18.477,104.908 18.615,104.908L18.913,104.908C19.121,104.908 19.349,104.802 19.596,104.591C19.844,104.381 20.066,104.103 20.262,103.759C20.458,103.415 20.59,103.057 20.657,102.685L20.864,102.685C20.846,102.899 20.837,103.174 20.837,103.511C20.837,104.161 20.858,104.695 20.899,105.114C20.492,105.097 19.805,105.088 18.839,105.088C17.436,105.088 16.386,105.097 15.689,105.114L15.689,104.934C15.882,104.925 16.022,104.902 16.108,104.864C16.195,104.826 16.253,104.755 16.284,104.653C16.315,104.55 16.33,104.386 16.33,104.161L16.33,99.698C16.33,99.472 16.314,99.308 16.282,99.206C16.25,99.103 16.19,99.033 16.104,98.995C16.018,98.957 15.879,98.933 15.689,98.925L15.689,98.744C16.032,98.762 16.566,98.771 17.292,98.771C17.983,98.771 18.514,98.762 18.883,98.744L18.883,98.925Z" style="fill:rgb(122,62,29);fill-rule:nonzero;"/>
                    <path d="M24.427,98.925C24.234,98.933 24.094,98.957 24.007,98.995C23.921,99.033 23.862,99.103 23.832,99.206C23.801,99.308 23.786,99.472 23.786,99.698L23.786,104.161C23.786,104.386 23.802,104.55 23.834,104.653C23.866,104.755 23.925,104.826 24.012,104.864C24.098,104.902 24.237,104.925 24.427,104.934L24.427,105.114C24.075,105.097 23.575,105.088 22.924,105.088C22.198,105.088 21.664,105.097 21.321,105.114L21.321,104.934C21.514,104.925 21.654,104.902 21.741,104.864C21.827,104.826 21.886,104.755 21.916,104.653C21.947,104.55 21.962,104.386 21.962,104.161L21.962,99.698C21.962,99.472 21.946,99.308 21.914,99.206C21.882,99.103 21.823,99.033 21.736,98.995C21.65,98.957 21.511,98.933 21.321,98.925L21.321,98.744C21.664,98.762 22.198,98.771 22.924,98.771C23.575,98.771 24.075,98.762 24.427,98.744L24.427,98.925Z" style="fill:rgb(122,62,29);fill-rule:nonzero;"/>
                    <path d="M31.047,98.925C30.86,98.966 30.722,99.03 30.635,99.118C30.547,99.206 30.487,99.34 30.457,99.52C30.426,99.7 30.41,99.969 30.41,100.326L30.41,105.114C30.323,105.105 30.225,105.101 30.116,105.101C30.011,105.101 29.898,105.105 29.778,105.114L25.794,100.761L25.794,103.353C25.794,103.795 25.811,104.113 25.846,104.306C25.881,104.499 25.96,104.642 26.083,104.734C26.206,104.826 26.413,104.893 26.703,104.934L26.703,105.114C26.463,105.097 26.126,105.088 25.692,105.088C25.376,105.088 25.127,105.097 24.946,105.114L24.946,104.934C25.133,104.893 25.271,104.829 25.361,104.741C25.45,104.653 25.51,104.519 25.541,104.339C25.572,104.159 25.587,103.89 25.587,103.533L25.587,99.698C25.587,99.472 25.571,99.308 25.539,99.206C25.507,99.103 25.447,99.033 25.361,98.995C25.274,98.957 25.136,98.933 24.946,98.925L24.946,98.744C25.127,98.762 25.376,98.771 25.692,98.771C26.023,98.771 26.3,98.762 26.523,98.744L30.2,102.632L30.2,100.506C30.2,100.064 30.182,99.746 30.147,99.553C30.112,99.359 30.033,99.217 29.912,99.124C29.79,99.032 29.585,98.966 29.295,98.925L29.295,98.744C29.538,98.762 29.873,98.771 30.301,98.771C30.62,98.771 30.869,98.762 31.047,98.744L31.047,98.925Z" style="fill:rgb(122,62,29);fill-rule:nonzero;"/>
                    <path d="M36.688,102.777C36.671,102.991 36.662,103.266 36.662,103.603C36.662,104.215 36.683,104.719 36.724,105.114C36.316,105.097 35.63,105.088 34.663,105.088C33.26,105.088 32.211,105.097 31.514,105.114L31.514,104.934C31.707,104.925 31.847,104.902 31.933,104.864C32.019,104.826 32.078,104.755 32.109,104.653C32.14,104.55 32.155,104.386 32.155,104.161L32.155,99.698C32.155,99.472 32.139,99.308 32.107,99.206C32.074,99.103 32.015,99.033 31.929,98.995C31.842,98.957 31.704,98.933 31.514,98.925L31.514,98.744C32.211,98.762 33.26,98.771 34.663,98.771C35.545,98.771 36.172,98.762 36.543,98.744C36.502,99.307 36.482,99.81 36.482,100.256C36.482,100.534 36.491,100.751 36.508,100.906L36.302,100.906C36.196,100.209 35.997,99.709 35.702,99.406C35.408,99.102 35.056,98.951 34.646,98.951L34.527,98.951C34.363,98.951 34.244,98.964 34.171,98.99C34.098,99.017 34.048,99.069 34.02,99.146C33.992,99.224 33.978,99.348 33.978,99.518L33.978,101.82L34.07,101.82C34.284,101.82 34.477,101.759 34.648,101.639C34.819,101.519 34.961,101.369 35.072,101.187C35.183,101.005 35.258,100.821 35.296,100.633L35.502,100.633C35.479,100.985 35.467,101.276 35.467,101.508L35.472,101.912C35.472,102.169 35.491,102.596 35.529,103.19L35.322,103.19C35.284,102.965 35.209,102.762 35.096,102.582C34.983,102.402 34.839,102.26 34.663,102.156C34.488,102.052 34.29,102 34.07,102L33.978,102L33.978,104.341C33.978,104.514 33.992,104.638 34.02,104.714C34.048,104.791 34.098,104.842 34.171,104.868C34.244,104.895 34.363,104.908 34.527,104.908L34.826,104.908C35.043,104.908 35.26,104.839 35.478,104.701C35.696,104.564 35.895,104.336 36.076,104.018C36.256,103.7 36.391,103.287 36.482,102.777L36.688,102.777Z" style="fill:rgb(122,62,29);fill-rule:nonzero;"/>
                    <path d="M44.904,105.114C44.889,104.927 44.865,104.791 44.832,104.708C44.798,104.624 44.749,104.583 44.684,104.583C44.638,104.583 44.576,104.608 44.5,104.657C44.321,104.783 44.157,104.887 44.006,104.967C43.855,105.048 43.683,105.113 43.49,105.165C43.296,105.216 43.078,105.242 42.835,105.242C42.156,105.242 41.561,105.113 41.051,104.855C40.542,104.597 40.147,104.223 39.865,103.733C39.584,103.242 39.444,102.659 39.444,101.982C39.444,101.32 39.588,100.734 39.876,100.225C40.165,99.715 40.566,99.32 41.08,99.039C41.594,98.758 42.182,98.617 42.844,98.617C43.201,98.617 43.506,98.668 43.76,98.771C44.013,98.873 44.26,99.017 44.5,99.201C44.567,99.254 44.626,99.28 44.676,99.28C44.799,99.28 44.875,99.102 44.904,98.744L45.111,98.744C45.087,99.169 45.075,99.919 45.075,100.994L44.869,100.994C44.84,100.674 44.798,100.407 44.744,100.192C44.69,99.977 44.607,99.783 44.496,99.612C44.384,99.441 44.232,99.292 44.039,99.166C43.763,98.988 43.485,98.898 43.204,98.898C42.774,98.898 42.433,99.05 42.183,99.353C41.932,99.656 41.758,100.035 41.66,100.488C41.562,100.942 41.513,101.429 41.513,101.947C41.513,102.465 41.562,102.951 41.66,103.405C41.758,103.859 41.932,104.238 42.183,104.541C42.433,104.844 42.774,104.996 43.204,104.996C43.485,104.996 43.763,104.906 44.039,104.728C44.232,104.608 44.384,104.46 44.496,104.284C44.607,104.108 44.69,103.902 44.744,103.667C44.798,103.431 44.84,103.134 44.869,102.777L45.075,102.777C45.075,103.893 45.087,104.672 45.111,105.114L44.904,105.114Z" style="fill:rgb(122,62,29);fill-rule:nonzero;"/>
                    <path d="M49.293,98.617C49.972,98.617 50.567,98.746 51.077,99.004C51.586,99.261 51.982,99.635 52.263,100.126C52.544,100.617 52.684,101.2 52.684,101.877C52.684,102.538 52.54,103.124 52.252,103.634C51.963,104.143 51.561,104.539 51.046,104.82C50.53,105.101 49.943,105.242 49.284,105.242C48.605,105.242 48.01,105.113 47.501,104.855C46.991,104.597 46.596,104.223 46.315,103.733C46.034,103.242 45.893,102.659 45.893,101.982C45.893,101.32 46.037,100.734 46.326,100.225C46.614,99.715 47.015,99.32 47.529,99.039C48.043,98.758 48.631,98.617 49.293,98.617ZM49.258,98.78C48.962,98.78 48.703,98.914 48.48,99.182C48.258,99.45 48.086,99.823 47.964,100.302C47.843,100.781 47.782,101.329 47.782,101.947C47.782,102.568 47.851,103.116 47.988,103.592C48.126,104.068 48.312,104.435 48.546,104.692C48.781,104.95 49.038,105.079 49.319,105.079C49.615,105.079 49.874,104.945 50.097,104.677C50.32,104.409 50.492,104.036 50.613,103.557C50.735,103.078 50.795,102.53 50.795,101.912C50.795,101.291 50.727,100.743 50.589,100.267C50.451,99.791 50.265,99.424 50.031,99.166C49.797,98.908 49.539,98.78 49.258,98.78Z" style="fill:rgb(122,62,29);fill-rule:nonzero;"/>
                    <path d="M53.19,98.744C53.887,98.762 54.937,98.771 56.34,98.771C57.221,98.771 57.848,98.762 58.22,98.744C58.179,99.307 58.158,99.81 58.158,100.256C58.158,100.534 58.167,100.751 58.185,100.906L57.978,100.906C57.832,100.212 57.611,99.712 57.315,99.408C57.019,99.103 56.688,98.951 56.322,98.951L56.204,98.951C56.04,98.951 55.921,98.964 55.848,98.99C55.775,99.017 55.724,99.069 55.696,99.146C55.668,99.224 55.654,99.348 55.654,99.518L55.654,101.82L55.747,101.82C55.96,101.82 56.153,101.759 56.324,101.639C56.496,101.519 56.637,101.369 56.748,101.187C56.86,101.005 56.934,100.821 56.972,100.633L57.179,100.633C57.155,100.985 57.144,101.276 57.144,101.508L57.148,101.912C57.148,102.169 57.167,102.596 57.205,103.19L56.999,103.19C56.961,102.965 56.885,102.762 56.772,102.582C56.66,102.402 56.515,102.26 56.34,102.156C56.164,102.052 55.966,102 55.747,102L55.654,102L55.654,104.069C55.654,104.321 55.68,104.504 55.731,104.62C55.783,104.736 55.876,104.813 56.012,104.851C56.149,104.889 56.363,104.908 56.656,104.908L56.656,105.114C55.848,105.097 55.23,105.088 54.802,105.088C54.703,105.088 54.165,105.097 53.19,105.114L53.19,104.934C53.383,104.925 53.523,104.902 53.61,104.864C53.696,104.826 53.755,104.755 53.785,104.653C53.816,104.55 53.831,104.386 53.831,104.161L53.831,99.698C53.831,99.472 53.815,99.308 53.783,99.206C53.751,99.103 53.692,99.033 53.605,98.995C53.519,98.957 53.38,98.933 53.19,98.925L53.19,98.744Z" style="fill:rgb(122,62,29);fill-rule:nonzero;"/>
                    <path d="M58.66,98.744C59.357,98.762 60.407,98.771 61.809,98.771C62.691,98.771 63.318,98.762 63.69,98.744C63.649,99.307 63.628,99.81 63.628,100.256C63.628,100.534 63.637,100.751 63.654,100.906L63.448,100.906C63.302,100.212 63.08,99.712 62.785,99.408C62.489,99.103 62.158,98.951 61.792,98.951L61.673,98.951C61.509,98.951 61.391,98.964 61.317,98.99C61.244,99.017 61.194,99.069 61.166,99.146C61.138,99.224 61.124,99.348 61.124,99.518L61.124,101.82L61.216,101.82C61.43,101.82 61.623,101.759 61.794,101.639C61.965,101.519 62.107,101.369 62.218,101.187C62.329,101.005 62.404,100.821 62.442,100.633L62.648,100.633C62.625,100.985 62.613,101.276 62.613,101.508L62.618,101.912C62.618,102.169 62.637,102.596 62.675,103.19L62.468,103.19C62.43,102.965 62.355,102.762 62.242,102.582C62.129,102.402 61.985,102.26 61.809,102.156C61.634,102.052 61.436,102 61.216,102L61.124,102L61.124,104.069C61.124,104.321 61.15,104.504 61.201,104.62C61.252,104.736 61.346,104.813 61.482,104.851C61.618,104.889 61.833,104.908 62.126,104.908L62.126,105.114C61.317,105.097 60.699,105.088 60.272,105.088C60.172,105.088 59.635,105.097 58.66,105.114L58.66,104.934C58.853,104.925 58.993,104.902 59.079,104.864C59.166,104.826 59.224,104.755 59.255,104.653C59.286,104.55 59.301,104.386 59.301,104.161L59.301,99.698C59.301,99.472 59.285,99.308 59.253,99.206C59.22,99.103 59.161,99.033 59.075,98.995C58.988,98.957 58.85,98.933 58.66,98.925L58.66,98.744Z" style="fill:rgb(122,62,29);fill-rule:nonzero;"/>
                    <path d="M69.304,102.777C69.287,102.991 69.278,103.266 69.278,103.603C69.278,104.215 69.298,104.719 69.339,105.114C68.932,105.097 68.245,105.088 67.279,105.088C65.876,105.088 64.826,105.097 64.129,105.114L64.129,104.934C64.323,104.925 64.462,104.902 64.549,104.864C64.635,104.826 64.694,104.755 64.725,104.653C64.755,104.55 64.771,104.386 64.771,104.161L64.771,99.698C64.771,99.472 64.755,99.308 64.722,99.206C64.69,99.103 64.631,99.033 64.544,98.995C64.458,98.957 64.32,98.933 64.129,98.925L64.129,98.744C64.826,98.762 65.876,98.771 67.279,98.771C68.161,98.771 68.787,98.762 69.159,98.744C69.118,99.307 69.098,99.81 69.098,100.256C69.098,100.534 69.106,100.751 69.124,100.906L68.918,100.906C68.812,100.209 68.612,99.709 68.318,99.406C68.024,99.102 67.671,98.951 67.261,98.951L67.143,98.951C66.979,98.951 66.86,98.964 66.787,98.99C66.714,99.017 66.663,99.069 66.635,99.146C66.608,99.224 66.594,99.348 66.594,99.518L66.594,101.82L66.686,101.82C66.9,101.82 67.092,101.759 67.264,101.639C67.435,101.519 67.576,101.369 67.688,101.187C67.799,101.005 67.874,100.821 67.912,100.633L68.118,100.633C68.095,100.985 68.083,101.276 68.083,101.508L68.087,101.912C68.087,102.169 68.106,102.596 68.144,103.19L67.938,103.19C67.9,102.965 67.824,102.762 67.712,102.582C67.599,102.402 67.455,102.26 67.279,102.156C67.103,102.052 66.906,102 66.686,102L66.594,102L66.594,104.341C66.594,104.514 66.608,104.638 66.635,104.714C66.663,104.791 66.714,104.842 66.787,104.868C66.86,104.895 66.979,104.908 67.143,104.908L67.442,104.908C67.658,104.908 67.876,104.839 68.094,104.701C68.312,104.564 68.511,104.336 68.691,104.018C68.871,103.7 69.007,103.287 69.098,102.777L69.304,102.777Z" style="fill:rgb(122,62,29);fill-rule:nonzero;"/>
                    <path d="M75.152,102.777C75.134,102.991 75.125,103.266 75.125,103.603C75.125,104.215 75.146,104.719 75.187,105.114C74.78,105.097 74.093,105.088 73.126,105.088C71.724,105.088 70.674,105.097 69.977,105.114L69.977,104.934C70.17,104.925 70.31,104.902 70.396,104.864C70.483,104.826 70.541,104.755 70.572,104.653C70.603,104.55 70.618,104.386 70.618,104.161L70.618,99.698C70.618,99.472 70.602,99.308 70.57,99.206C70.538,99.103 70.478,99.033 70.392,98.995C70.305,98.957 70.167,98.933 69.977,98.925L69.977,98.744C70.674,98.762 71.724,98.771 73.126,98.771C74.008,98.771 74.635,98.762 75.007,98.744C74.966,99.307 74.945,99.81 74.945,100.256C74.945,100.534 74.954,100.751 74.971,100.906L74.765,100.906C74.66,100.209 74.46,99.709 74.165,99.406C73.871,99.102 73.519,98.951 73.109,98.951L72.99,98.951C72.826,98.951 72.708,98.964 72.634,98.99C72.561,99.017 72.511,99.069 72.483,99.146C72.455,99.224 72.441,99.348 72.441,99.518L72.441,101.82L72.533,101.82C72.747,101.82 72.94,101.759 73.111,101.639C73.282,101.519 73.424,101.369 73.535,101.187C73.646,101.005 73.721,100.821 73.759,100.633L73.966,100.633C73.942,100.985 73.93,101.276 73.93,101.508L73.935,101.912C73.935,102.169 73.954,102.596 73.992,103.19L73.785,103.19C73.747,102.965 73.672,102.762 73.559,102.582C73.446,102.402 73.302,102.26 73.126,102.156C72.951,102.052 72.753,102 72.533,102L72.441,102L72.441,104.341C72.441,104.514 72.455,104.638 72.483,104.714C72.511,104.791 72.561,104.842 72.634,104.868C72.708,104.895 72.826,104.908 72.99,104.908L73.289,104.908C73.506,104.908 73.723,104.839 73.941,104.701C74.16,104.564 74.359,104.336 74.539,104.018C74.719,103.7 74.854,103.287 74.945,102.777L75.152,102.777Z" style="fill:rgb(122,62,29);fill-rule:nonzero;"/>
                </g>
                <g transform="matrix(7.03348,0,0,7.03348,647.130504,766.354427)">
                    <path d="M0,60.946L0,62.168C0,63.488 -1.07,64.557 -2.389,64.557L-57.745,64.557C-59.064,64.557 -60.134,63.488 -60.134,62.168L-60.134,16.097C-60.134,15.969 -60.124,15.842 -60.103,15.716C-59.748,13.538 -58.453,7.623 -53.273,2.544C-50.201,-0.468 -46.865,-2.105 -44.222,-3.002C-42.429,-3.611 -40.672,-2.002 -41.129,-0.165C-41.329,0.638 -41.928,1.282 -42.717,1.532C-43.961,1.927 -45.358,2.535 -46.756,3.483C-52.564,7.424 -53.749,14.099 -53.994,15.886C-54.009,16 -54.016,16.113 -54.015,16.227C-53.918,29.546 -53.82,42.865 -53.722,56.185C-53.712,57.498 -52.645,58.557 -51.333,58.557L-2.389,58.557C-1.07,58.557 0,59.627 0,60.946" style="fill:rgb(122,62,29);fill-rule:nonzero;"/>
                </g>
                <g transform="matrix(7.03348,0,0,7.03348,641.65705,927.506216)">
                    <path d="M0,-5.307C-1.285,-6.527 -2.817,-6.99 -4.447,-7.514C-2.114,-7.836 0.051,-6.079 1.172,-4.137L0,-5.307ZM-0.218,-0.579C-1.247,4.661 -7.041,2.99 -7.041,2.99C-7.397,2.323 -8.062,0.863 -8.028,-1.093C-7.996,-2.882 -7.394,-4.219 -7.041,-4.88C-3.327,-6.128 0.378,-3.624 -0.218,-0.579M-31.693,11.201C-44.323,6.787 -42.998,-13.316 -29.029,-14.221C-24.493,-14.516 -21.342,-13.381 -18.156,-10.242C-8.723,-0.95 -19.15,15.585 -31.693,11.201M-36.255,13.936L-32.632,15.305C-28.646,16.648 -23.643,15.774 -18.332,14.925C-26.203,18.819 -32.996,17.298 -36.255,13.936M-17.962,-17.114L-20.847,-18.441C-24.014,-19.77 -27.834,-19.359 -31.896,-18.985C-26.034,-21.679 -20.686,-20.04 -17.962,-17.114M-2.097,-7.38C-4.718,-8.552 -8.049,-7.747 -8.852,-7.554C-9.002,-7.517 -9.125,-7.485 -9.208,-7.462C-13.535,-19.279 -26.211,-24.516 -37.337,-17.733C-46.444,-12.181 -49.313,-0.364 -43.918,8.707C-41.544,12.699 -36.229,16.79 -31.637,17.719C-24.276,19.209 -17.315,16.112 -12.864,10.294C-12.559,9.897 -12.358,9.294 -12.022,8.825C-11.43,7.998 -10.567,7.208 -10.274,6.22C-8.645,8.9 -4.926,7.773 -3.335,7.386C-2.929,7.287 1.905,5.351 2.317,0.423C2.615,-3.133 0.435,-6.248 -2.097,-7.38" style="fill:rgb(122,62,29);fill-rule:nonzero;"/>
                </g>
                <g transform="matrix(7.03348,0,0,7.03348,615.423578,1155.478873)">
                    <path d="M0,-19.621L-0.13,-19.97L-2.666,-20.683C-2.286,-20.778 0.037,-20.452 0.155,-20.311C0.19,-20.269 0.31,-19.553 0,-19.621M0.511,-20.843C0.226,-21.179 -3.211,-21.101 -3.782,-20.822C-4.784,-20.334 -5.94,-18.081 -6.68,-17.147C-12.326,-10.009 -22.114,-7.606 -30.448,-11.294C-34.416,-13.05 -36.996,-16.19 -40.069,-19.086C-40.186,-18.727 -39.58,-18.093 -39.359,-17.84C-36.173,-14.182 -31.975,-10.834 -27.187,-9.667C-27.143,-9.352 -27.587,-9.494 -27.766,-9.532C-28.912,-9.781 -30.518,-10.356 -31.571,-10.882C-35.163,-12.676 -37.737,-15.696 -40.606,-18.369C-41.053,-18.786 -41.811,-20.249 -42.47,-19.535C-43.81,-18.088 -41.695,-12.959 -40.9,-11.325C-34.798,1.229 -15.893,1.558 -6.772,-7.822C-4.582,-10.075 0.269,-16.664 0.527,-19.711C0.558,-20.082 0.555,-20.475 0.511,-20.843" style="fill:rgb(122,62,29);fill-rule:nonzero;"/>
                </g>
                <g transform="matrix(7.03348,0,0,7.03348,447.797472,862.088525)">
                    <path d="M0,13.997C-2.39,14.305 -3.006,11.916 -3.006,11.916C-3.006,11.916 1.079,11.916 0,13.997M1.576,13.515C1.528,13.049 2.114,12.165 2.177,11.511C2.517,7.975 -1.3,7.363 -2.325,4.646C-2.799,3.391 -2.655,2.05 -2.655,2.05C-2.621,1.169 -2.446,0.447 -2.291,-0.046C-2.158,-0.392 -2.046,-0.8 -2.214,-0.945C-2.578,-1.261 -4.14,-0.219 -4.967,0.644C-6.951,2.715 -7.332,6.49 -6.15,9.475C-5.124,12.062 -2.241,14.862 0.619,15.184C1.268,15.258 2.15,15.184 2.832,15.184C2.846,15.184 3.097,15.064 3.083,15.033C2.694,14.668 1.633,14.093 1.576,13.515" style="fill:rgb(122,62,29);fill-rule:nonzero;"/>
                </g>
                <g transform="matrix(7.03348,0,0,7.03348,451.7109,965.375173)">
                    <path d="M0,-15.254C0,-15.254 3.605,-15.099 4.452,-12.557C5.3,-10.013 0,-15.254 0,-15.254M6.95,-10.105C5.925,-12.691 3.042,-15.491 0.182,-15.813C-0.467,-15.886 -1.349,-15.813 -2.031,-15.813C-2.045,-15.813 -2.295,-15.692 -2.282,-15.662C-1.893,-15.296 -0.832,-14.722 -0.775,-14.144C-0.727,-13.677 -1.313,-12.793 -1.376,-12.14C-1.716,-8.604 2.101,-7.993 3.126,-5.275C3.6,-4.02 3.456,-2.679 3.456,-2.679C3.423,-1.797 3.247,-1.076 3.092,-0.582C2.959,-0.237 2.847,0.171 3.014,0.316C3.379,0.632 4.941,-0.41 5.768,-1.273C7.752,-3.343 8.133,-7.118 6.95,-10.105" style="fill:rgb(122,62,29);fill-rule:nonzero;"/>
                </g>
                <g transform="matrix(7.03348,0,0,7.03348,597.431234,1103.468402)">
                    <path d="M0,5.992C-0.854,4.921 -0.882,3.008 -0.356,1.793C0.25,0.39 1.649,-0.752 3.014,-0.781C3.582,-0.793 4.459,-0.618 4.475,-0.39C4.483,-0.285 4.307,-0.185 4.147,-0.113C3.928,0.001 3.627,0.184 3.318,0.47C3.318,0.47 2.819,0.873 2.556,1.454C1.986,2.714 3.065,4.205 1.761,5.28C1.52,5.479 1.025,5.58 0.884,5.752C0.709,5.966 0.872,6.517 0.88,6.771C0.875,6.785 0.75,6.742 0.745,6.737C0.515,6.507 0.194,6.235 0,5.992ZM-0.12,3.672C-0.12,3.672 -0.717,4.684 0.191,5.384C1.255,5.047 -0.12,3.672 -0.12,3.672Z" style="fill:rgb(122,62,29);fill-rule:nonzero;"/>
                </g>
                <g transform="matrix(7.03348,0,0,7.03348,636.329893,1149.428674)">
                    <path d="M0,-5.992C0.854,-4.921 0.882,-3.008 0.356,-1.793C-0.25,-0.39 -1.649,0.752 -3.014,0.781C-3.582,0.793 -4.459,0.618 -4.475,0.39C-4.483,0.285 -4.307,0.185 -4.147,0.113C-3.928,-0.001 -3.627,-0.184 -3.318,-0.47C-3.318,-0.47 -2.819,-0.873 -2.556,-1.454C-1.986,-2.714 -3.065,-4.205 -1.761,-5.28C-1.52,-5.479 -1.025,-5.58 -0.884,-5.752C-0.709,-5.966 -0.872,-6.517 -0.88,-6.771C-0.875,-6.785 -0.75,-6.742 -0.745,-6.737C-0.515,-6.507 -0.194,-6.235 0,-5.992ZM-0.25,-5.865C-0.25,-5.865 -0.23,-2.317 0.341,-3.459C0.911,-4.6 -0.25,-5.865 -0.25,-5.865Z" style="fill:rgb(122,62,29);fill-rule:nonzero;"/>
                </g>
            </g>
        </g>
    </g>
</svg>
