<?xml version="1.0" encoding="UTF-8" standalone="no"?>
<!DOCTYPE svg PUBLIC "-//W3C//DTD SVG 1.1//EN" "http://www.w3.org/Graphics/SVG/1.1/DTD/svg11.dtd">
<svg width="100%" height="100%" viewBox="0 0 417 193" version="1.1" xmlns="http://www.w3.org/2000/svg" xmlns:xlink="http://www.w3.org/1999/xlink" xml:space="preserve" xmlns:serif="http://www.serif.com/" style="fill-rule:evenodd;clip-rule:evenodd;stroke-linejoin:round;stroke-miterlimit:2;">
    <g transform="matrix(1,0,0,1,-153.998919,-63.987665)">
        <g transform="matrix(0.501702,0,0,0.501702,-112.471147,-373.425642)">
            <g transform="matrix(7.03348,0,0,7.03348,-160.054679,565.904677)">
                <path d="M107.898,77.362C107.943,77.294 108.011,77.215 108.101,77.125L109.66,75.566L111.185,77.125C111.366,77.306 111.457,77.509 111.457,77.735C111.457,77.961 111.366,78.164 111.185,78.345L109.66,79.904L108.101,78.345C108.011,78.255 107.943,78.176 107.898,78.108C107.875,78.176 107.818,78.255 107.728,78.345L106.169,79.904L104.61,78.345C104.451,78.164 104.372,77.961 104.372,77.735C104.372,77.509 104.451,77.306 104.61,77.125L106.169,75.566L107.728,77.125C107.818,77.215 107.875,77.294 107.898,77.362Z" style="fill:rgb(182,106,44);fill-rule:nonzero;"/>
                <path d="M133.862,53.431L132.303,51.872C132.145,51.691 132.066,51.488 132.066,51.262C132.066,51.036 132.145,50.821 132.303,50.618L133.862,49.093L135.421,50.618C135.58,50.821 135.659,51.036 135.659,51.262C135.659,51.488 135.58,51.691 135.421,51.872L133.862,53.431Z" style="fill:rgb(182,106,44);fill-rule:nonzero;"/>
                <path d="M185.283,59.261L186.842,57.702C187,57.521 187.08,57.318 187.08,57.092C187.08,56.866 187,56.663 186.842,56.482L185.283,54.923L183.724,56.482C183.566,56.663 183.486,56.866 183.486,57.092C183.486,57.318 183.566,57.521 183.724,57.702L185.283,59.261Z" style="fill:rgb(182,106,44);fill-rule:nonzero;"/>
                <path d="M194.672,77.362C194.718,77.272 194.785,77.181 194.876,77.091L196.435,75.566L197.994,77.091C198.152,77.294 198.231,77.509 198.231,77.735C198.231,77.961 198.152,78.164 197.994,78.345L196.435,79.904L194.876,78.345C194.785,78.255 194.718,78.176 194.672,78.108C194.65,78.176 194.593,78.255 194.503,78.345L192.944,79.904L191.384,78.345C191.226,78.164 191.147,77.961 191.147,77.735C191.147,77.509 191.226,77.294 191.384,77.091L192.944,75.566L194.503,77.091C194.593,77.181 194.65,77.272 194.672,77.362Z" style="fill:rgb(182,106,44);fill-rule:nonzero;"/>
                <path d="M212.495,72.894C212.045,73.248 211.555,73.54 211.027,73.769C210.248,74.108 209.406,74.278 208.502,74.278L202.299,74.278C202.412,74.029 202.519,73.803 202.621,73.6C202.723,73.396 202.864,73.295 203.045,73.295C203.451,73.295 203.757,73.136 203.96,72.819C204.073,72.638 204.129,72.457 204.129,72.276C204.129,72.094 204.073,71.902 203.96,71.698C203.644,71.109 203.485,70.475 203.485,69.795L203.485,65.209C203.485,64.439 203.836,63.828 204.536,63.375C205.553,62.74 206.141,61.959 206.299,61.03C206.344,60.759 206.367,60.487 206.367,60.215C206.367,59.559 206.208,58.936 205.892,58.347C205.824,58.233 205.734,58.177 205.621,58.177L205.451,58.177C205.384,58.177 205.327,58.256 205.282,58.414C205.101,58.956 204.762,59.341 204.265,59.567C204.062,59.657 203.847,59.702 203.621,59.702C203.35,59.702 203.067,59.623 202.774,59.465C202.186,59.126 201.892,58.629 201.892,57.973C201.892,57.702 201.971,57.42 202.13,57.126C202.491,56.561 202.988,56.279 203.621,56.279C203.892,56.279 204.175,56.358 204.468,56.516C205.237,56.946 205.926,57.626 206.536,58.554C207.146,59.483 207.451,60.535 207.451,61.713L207.451,72.446C207.451,73.034 207.79,73.329 208.468,73.329C209.214,73.329 209.841,73.074 210.349,72.566C210.858,72.057 211.112,71.453 211.112,70.752L211.112,69.769C211.112,71.046 211.573,72.088 212.495,72.894Z" style="fill:rgb(182,106,44);fill-rule:nonzero;"/>
            </g>
        </g>
        <g transform="matrix(0.501702,0,0,0.501702,-112.471147,-373.425642)">
            <g transform="matrix(8.991555,0,0,8.991555,653.708332,1183.807381)">
                <path d="M0,1.137L0.4,0.728C0.447,0.681 0.471,0.628 0.471,0.569C0.471,0.509 0.447,0.456 0.4,0.409L0,0L-0.409,0.409C-0.456,0.456 -0.48,0.509 -0.48,0.569C-0.48,0.628 -0.456,0.681 -0.409,0.728L0,1.137Z" style="fill:rgb(182,106,44);fill-rule:nonzero;"/>
            </g>
        </g>
        <g transform="matrix(0.501702,0,0,0.501702,-112.471147,-373.425642)">
            <g transform="matrix(8.991555,0,0,8.991555,706.969809,1209.603254)">
                <path d="M0,1.137L0.409,0.728C0.428,0.706 0.443,0.682 0.453,0.657C0.463,0.682 0.478,0.706 0.497,0.728L0.906,1.137L1.315,0.728C1.362,0.681 1.386,0.628 1.386,0.569C1.386,0.509 1.362,0.456 1.315,0.409L0.906,0L0.497,0.409C0.478,0.431 0.463,0.455 0.453,0.48C0.443,0.455 0.428,0.431 0.409,0.409L0,0L-0.409,0.409C-0.456,0.456 -0.48,0.509 -0.48,0.569C-0.48,0.628 -0.456,0.681 -0.409,0.728L0,1.137Z" style="fill:rgb(182,106,44);fill-rule:nonzero;"/>
            </g>
        </g>
        <g transform="matrix(0.501702,0,0,0.501702,-112.471147,-373.425642)">
            <g transform="matrix(8.991555,0,0,8.991555,765.516522,1183.807381)">
                <path d="M0,1.137L0.409,0.728C0.45,0.681 0.471,0.628 0.471,0.569C0.471,0.509 0.45,0.456 0.409,0.409L0,0L-0.409,0.409C-0.456,0.456 -0.48,0.509 -0.48,0.569C-0.48,0.628 -0.456,0.681 -0.409,0.728L0,1.137Z" style="fill:rgb(182,106,44);fill-rule:nonzero;"/>
            </g>
        </g>
        <g transform="matrix(0.501702,0,0,0.501702,-112.471147,-373.425642)">
            <g transform="matrix(8.991555,0,0,8.991555,820.541243,1182.767957)">
                <path d="M0,5.809C0,5.993 -0.067,6.151 -0.2,6.284C-0.333,6.417 -0.492,6.484 -0.675,6.484C-0.865,6.484 -1.026,6.417 -1.159,6.284C-1.292,6.151 -1.359,5.993 -1.359,5.809L-1.359,2.425C-1.359,2.241 -1.292,2.085 -1.159,1.954C-1.026,1.824 -0.865,1.759 -0.675,1.759C-0.492,1.759 -0.333,1.824 -0.2,1.954C-0.067,2.085 0,2.241 0,2.425L0,5.809ZM-17.879,5.8C-17.879,5.99 -17.946,6.15 -18.079,6.28C-18.212,6.41 -18.371,6.475 -18.554,6.475C-18.744,6.475 -18.905,6.41 -19.038,6.28C-19.172,6.15 -19.238,5.99 -19.238,5.8L-19.238,2.425C-19.238,2.241 -19.172,2.083 -19.038,1.95C-18.905,1.817 -18.744,1.75 -18.554,1.75C-18.371,1.75 -18.212,1.817 -18.079,1.95C-17.946,2.083 -17.879,2.241 -17.879,2.425L-17.879,5.8ZM-20.082,6.369C-21.593,6.494 -22.769,6.277 -23.042,5.826C-23.151,5.644 -23.189,5.446 -23.189,5.446C-23.274,5.004 -23.066,4.633 -22.978,4.494C-22.962,3.735 -23.06,3.151 -23.153,2.865C-23.23,2.628 -23.343,2.383 -23.343,2.383C-23.404,2.248 -23.434,2.177 -23.492,2.087C-23.652,1.845 -23.833,1.667 -24.034,1.555C-24.105,1.513 -24.179,1.492 -24.256,1.492C-24.428,1.492 -24.558,1.566 -24.647,1.714C-24.689,1.791 -24.709,1.865 -24.709,1.936C-24.709,2.108 -24.635,2.238 -24.487,2.327C-24.41,2.369 -24.333,2.389 -24.256,2.389C-24.197,2.389 -24.141,2.378 -24.088,2.354C-23.957,2.295 -23.871,2.194 -23.83,2.052C-23.812,2.011 -23.786,1.987 -23.75,1.981C-23.714,1.981 -23.688,1.996 -23.67,2.025C-23.581,2.191 -23.537,2.363 -23.537,2.54C-23.537,2.606 -23.543,2.671 -23.555,2.736C-23.596,2.979 -23.75,3.183 -24.016,3.349C-24.2,3.467 -24.292,3.63 -24.292,3.837L-24.292,3.89C-24.286,4.222 -24.23,4.548 -24.123,4.868C-24.011,5.217 -23.846,5.529 -23.63,5.805C-23.503,5.966 -23.387,6.074 -23.343,6.115C-23.157,6.285 -22.976,6.4 -22.84,6.475C-22.519,6.575 -22.167,6.664 -21.787,6.733C-20.516,6.963 -19.396,6.881 -18.554,6.733C-18.414,6.718 -18.24,6.686 -18.048,6.622C-17.823,6.546 -17.643,6.449 -17.512,6.365C-17.496,6.378 -17.482,6.392 -17.466,6.404C-17.339,6.505 -17.197,6.585 -17.04,6.644C-16.883,6.703 -16.725,6.733 -16.565,6.733L-15.526,6.733C-15.124,6.733 -14.772,6.611 -14.469,6.369C-14.34,6.486 -14.184,6.579 -13.998,6.644C-13.838,6.703 -13.678,6.733 -13.518,6.733L-11.44,6.733C-11.043,6.733 -10.692,6.61 -10.387,6.365C-10.374,6.376 -10.362,6.388 -10.347,6.4C-10.069,6.622 -9.767,6.733 -9.442,6.733L-6.12,6.733C-5.883,6.733 -5.661,6.687 -5.454,6.595C-5.315,6.534 -5.19,6.457 -5.074,6.367C-5.06,6.379 -5.047,6.392 -5.032,6.404C-4.756,6.623 -4.453,6.733 -4.121,6.733L-3.082,6.733C-2.614,6.733 -2.215,6.567 -1.883,6.235C-1.729,6.383 -1.549,6.503 -1.341,6.595C-1.134,6.687 -0.915,6.733 -0.684,6.733C-0.447,6.733 -0.225,6.688 -0.018,6.599C0.189,6.511 0.372,6.386 0.528,6.226C0.685,6.067 0.81,5.883 0.902,5.676C0.993,5.469 1.039,5.247 1.039,5.01L1.039,3.215C1.039,2.979 0.993,2.758 0.902,2.554C0.81,2.349 0.685,2.167 0.528,2.008C0.372,1.848 0.192,1.723 -0.009,1.634C-0.21,1.546 -0.42,1.501 -0.639,1.501C-0.9,1.501 -1.134,1.546 -1.341,1.634C-1.762,1.818 -2.07,2.126 -2.265,2.558C-2.36,2.771 -2.407,2.993 -2.407,3.224L-2.407,5.8C-2.407,5.984 -2.474,6.142 -2.607,6.275C-2.74,6.409 -2.899,6.475 -3.082,6.475L-4.121,6.475C-4.305,6.475 -4.397,6.395 -4.397,6.235L-4.397,3.215C-4.397,3.215 -4.442,2.758 -4.534,2.554C-4.626,2.349 -4.75,2.167 -4.907,2.008C-5.064,1.848 -5.246,1.722 -5.454,1.63C-5.661,1.538 -5.883,1.492 -6.12,1.492C-6.351,1.492 -6.573,1.54 -6.786,1.634C-7.218,1.83 -7.523,2.138 -7.701,2.558C-7.795,2.766 -7.843,3.008 -7.843,3.287C-7.843,3.488 -7.751,3.645 -7.567,3.757C-7.248,3.959 -7.088,4.234 -7.088,4.583C-7.088,4.755 -7.132,4.921 -7.221,5.081C-7.239,5.11 -7.26,5.125 -7.283,5.125L-7.328,5.125C-7.345,5.125 -7.36,5.104 -7.372,5.063C-7.413,4.915 -7.499,4.814 -7.63,4.761C-7.683,4.737 -7.739,4.725 -7.798,4.725C-7.875,4.725 -7.952,4.746 -8.029,4.788C-8.183,4.876 -8.26,5.004 -8.26,5.169C-8.26,5.247 -8.24,5.324 -8.198,5.4C-8.109,5.549 -7.979,5.622 -7.807,5.622C-7.736,5.622 -7.662,5.602 -7.585,5.56C-7.384,5.442 -7.203,5.263 -7.043,5.023C-6.883,4.783 -6.804,4.509 -6.804,4.201L-6.804,2.425C-6.804,2.241 -6.737,2.083 -6.604,1.95C-6.471,1.817 -6.309,1.75 -6.12,1.75C-5.936,1.75 -5.778,1.817 -5.645,1.95C-5.511,2.083 -5.445,2.241 -5.445,2.425L-5.445,5.8C-5.445,5.99 -5.511,6.15 -5.645,6.28C-5.778,6.41 -5.936,6.475 -6.12,6.475L-7.479,6.466L-8.402,6.475L-9.442,6.475C-9.625,6.475 -9.717,6.395 -9.717,6.235L-9.717,3.215L-10.49,3.66C-10.673,3.778 -10.765,3.938 -10.765,4.139L-10.765,5.8C-10.765,5.984 -10.83,6.142 -10.96,6.275C-11.091,6.409 -11.251,6.475 -11.44,6.475L-13.518,6.475C-13.708,6.475 -13.803,6.395 -13.803,6.235L-13.803,-1.154L-14.566,-0.71C-14.75,-0.592 -14.842,-0.432 -14.842,-0.231L-14.842,5.8C-14.842,5.99 -14.908,6.15 -15.042,6.28C-15.175,6.41 -15.336,6.475 -15.526,6.475L-16.565,6.475C-16.748,6.475 -16.84,6.395 -16.84,6.235L-16.84,3.215C-16.84,2.979 -16.885,2.757 -16.973,2.549C-17.062,2.342 -17.187,2.16 -17.346,2.003C-17.506,1.846 -17.688,1.722 -17.893,1.63C-18.097,1.538 -18.318,1.492 -18.554,1.492C-19.01,1.492 -19.412,1.663 -19.758,2.003C-20.104,2.344 -20.277,2.748 -20.277,3.215L-20.277,5.01C-20.289,5.165 -20.282,5.393 -20.168,5.621C-20.007,5.941 -19.727,6.075 -19.771,6.218C-19.787,6.27 -19.85,6.335 -20.082,6.369" style="fill:rgb(182,106,44);fill-rule:nonzero;"/>
            </g>
        </g>
        <g transform="matrix(0.501702,0,0,0.501702,-112.471147,-373.425642)">
            <g transform="matrix(8.991555,0,0,8.991555,1012.305939,1244.912192)">
                <path d="M0,1.137L0.409,0.728C0.45,0.681 0.471,0.628 0.471,0.569C0.471,0.509 0.45,0.456 0.409,0.409L0,0L-0.409,0.409C-0.456,0.456 -0.48,0.509 -0.48,0.569C-0.48,0.628 -0.456,0.681 -0.409,0.728L0,1.137Z" style="fill:rgb(182,106,44);fill-rule:nonzero;"/>
            </g>
        </g>
        <g transform="matrix(0.501702,0,0,0.501702,-112.471147,-373.425642)">
            <g transform="matrix(8.991555,0,0,8.991555,902.701579,1216.321744)">
                <path d="M0,1.661C0,1.845 -0.067,2.003 -0.2,2.136C-0.333,2.269 -0.495,2.336 -0.684,2.336C-0.868,2.336 -1.026,2.269 -1.159,2.136C-1.292,2.003 -1.359,1.845 -1.359,1.661L-1.359,-1.723C-1.359,-1.907 -1.292,-2.063 -1.159,-2.194C-1.026,-2.324 -0.868,-2.389 -0.684,-2.389C-0.495,-2.389 -0.333,-2.324 -0.2,-2.194C-0.067,-2.063 0,-1.907 0,-1.723L0,1.661ZM1.039,2.096L1.039,-0.924C1.039,-1.397 0.869,-1.804 0.528,-2.145C0.188,-2.485 -0.216,-2.656 -0.684,-2.656C-0.915,-2.656 -1.136,-2.608 -1.346,-2.514C-1.556,-2.419 -1.738,-2.293 -1.892,-2.136C-2.046,-1.979 -2.17,-1.797 -2.265,-1.59C-2.36,-1.382 -2.407,-1.16 -2.407,-0.924L-2.407,0.862C-2.407,1.099 -2.36,1.321 -2.265,1.528C-2.17,1.735 -2.046,1.919 -1.892,2.078C-1.768,2.203 -1.625,2.306 -1.466,2.389C-1.655,2.437 -1.827,2.526 -1.981,2.656C-2.265,2.881 -2.407,3.171 -2.407,3.526L-2.407,4.317L-1.634,3.873C-1.451,3.754 -1.359,3.594 -1.359,3.393L-1.359,2.825C-1.359,2.665 -1.267,2.585 -1.084,2.585L-0.684,2.585C-0.287,2.585 0.063,2.463 0.368,2.22C0.382,2.232 0.394,2.245 0.409,2.256C0.681,2.475 0.986,2.585 1.323,2.585L1.323,2.336C1.134,2.33 1.039,2.25 1.039,2.096" style="fill:rgb(182,106,44);fill-rule:nonzero;"/>
            </g>
        </g>
        <g transform="matrix(0.501702,0,0,0.501702,-112.471147,-373.425642)">
            <g transform="matrix(8.991555,0,0,8.991555,993.344547,1185.337744)">
                <path d="M0,5.098C0,5.288 -0.067,5.447 -0.2,5.578C-0.333,5.708 -0.494,5.773 -0.684,5.773L-1.874,5.773C-1.708,5.661 -1.575,5.513 -1.474,5.329C-1.397,5.181 -1.359,5.018 -1.359,4.84L-1.359,1.723C-1.359,1.539 -1.292,1.381 -1.159,1.248C-1.026,1.114 -0.867,1.048 -0.684,1.048L-0.284,1.048C-0.095,1.048 0,1.125 0,1.279L0,5.098ZM3.098,2.849L3.098,4.963C3.098,5.147 3.033,5.305 2.903,5.438C2.772,5.572 2.612,5.638 2.423,5.638C2.233,5.638 1.039,5.696 1.039,5.542L1.039,1.98C1.039,1.625 0.903,1.338 0.631,1.119C0.358,0.9 0.053,0.79 -0.284,0.79L-0.684,0.79C-1.152,0.79 -1.554,0.959 -1.892,1.297C-2.022,1.427 -2.129,1.572 -2.212,1.732C-2.212,1.584 -2.149,1.424 -2.025,1.252C-1.913,1.098 -1.782,0.968 -1.634,0.861C-1.451,0.749 -1.359,0.592 -1.359,0.391L-1.359,-0.933L-2.132,-0.489C-2.315,-0.37 -2.407,-0.21 -2.407,-0.009L-2.407,5.098C-2.407,5.288 -2.474,5.447 -2.607,5.578C-2.74,5.708 -4.089,5.773 -4.272,5.773L-6.271,5.773C-6.46,5.773 -6.62,5.708 -6.75,5.578C-6.881,5.447 -6.946,5.29 -6.946,5.107L-6.946,1.723C-6.946,1.539 -6.881,1.381 -6.75,1.248C-6.62,1.114 -6.46,1.048 -6.271,1.048L-5.871,1.048C-5.687,1.048 -5.596,1.128 -5.596,1.288L-5.596,3.499C-5.596,3.807 -5.514,4.081 -5.351,4.321C-5.189,4.561 -5.006,4.74 -4.805,4.858C-4.734,4.9 -4.66,4.92 -4.583,4.92C-4.548,4.92 -4.491,4.91 -4.414,4.889C-4.337,4.869 -4.266,4.805 -4.201,4.698C-4.16,4.627 -4.139,4.553 -4.139,4.476C-4.139,4.435 -4.149,4.376 -4.17,4.299C-4.191,4.222 -4.254,4.151 -4.361,4.085C-4.438,4.044 -4.515,4.023 -4.592,4.023C-4.811,4.023 -4.953,4.136 -5.018,4.361C-5.03,4.402 -5.06,4.423 -5.107,4.423C-5.137,4.423 -5.16,4.408 -5.178,4.379C-5.267,4.219 -5.311,4.047 -5.311,3.863C-5.311,3.804 -5.297,3.696 -5.267,3.539C-5.237,3.382 -5.089,3.221 -4.823,3.055C-4.639,2.943 -4.548,2.786 -4.548,2.584L-4.548,1.98C-4.548,1.803 -4.586,1.64 -4.663,1.492C-4.817,1.196 -5.063,0.992 -5.4,0.879C-5.554,0.82 -5.711,0.79 -5.871,0.79L-6.271,0.79C-6.732,0.79 -7.135,0.959 -7.479,1.297C-7.822,1.634 -7.994,2.04 -7.994,2.513L-7.994,4.307C-7.994,4.645 -7.89,4.974 -7.683,5.293C-7.63,5.37 -7.603,5.435 -7.603,5.489C-7.603,5.536 -7.618,5.584 -7.647,5.631C-7.707,5.726 -7.787,5.773 -7.887,5.773L-8.758,5.773L-8.758,6.031L-0.684,6.031C-0.284,6.031 0.066,5.909 0.369,5.667C0.382,5.678 0.395,5.691 0.409,5.702C0.681,5.921 2.085,5.896 2.423,5.896C2.891,5.896 3.295,5.726 3.635,5.385C3.976,5.045 4.146,4.644 4.146,4.182L4.146,1.926L3.373,2.37C3.19,2.488 3.098,2.648 3.098,2.849" style="fill:rgb(182,106,44);fill-rule:nonzero;"/>
            </g>
        </g>
        <g transform="matrix(0.501702,0,0,0.501702,-112.471147,-373.425642)">
            <g transform="matrix(8.991555,0,0,8.991555,1105.557358,1208.896517)">
                <path d="M0,1.039C0.127,1.113 0.265,1.15 0.413,1.15C0.579,1.15 0.742,1.106 0.902,1.017L1.745,0.528L1.523,0.395C1.494,0.377 1.464,0.368 1.434,0.368C1.411,0.368 1.384,0.377 1.354,0.395L0.679,0.786C0.65,0.804 0.617,0.812 0.582,0.812C0.505,0.812 0.449,0.78 0.413,0.715C0.389,0.673 0.378,0.635 0.378,0.599C0.378,0.534 0.407,0.481 0.466,0.439C0.502,0.416 0.549,0.389 0.608,0.36L0.555,0.386C0.567,0.38 0.586,0.37 0.613,0.355C0.639,0.34 0.676,0.318 0.724,0.288C0.771,0.259 0.795,0.215 0.795,0.155L0.795,-0.111L0.537,0.04C0.413,0.111 0.333,0.215 0.298,0.351C0.286,0.398 0.28,0.448 0.28,0.502C0.28,0.667 0.348,0.801 0.484,0.901C0.372,0.955 0.28,0.981 0.209,0.981C0.031,0.981 -0.102,0.898 -0.191,0.733C-0.226,0.667 -0.244,0.602 -0.244,0.537C-0.244,0.525 -0.238,0.517 -0.226,0.511L-0.2,0.519C-0.17,0.543 -0.138,0.555 -0.102,0.555C-0.049,0.555 -0.01,0.534 0.013,0.493C0.025,0.469 0.031,0.448 0.031,0.431C0.031,0.377 0.007,0.336 -0.04,0.306C-0.058,0.294 -0.075,0.288 -0.093,0.288C-0.152,0.288 -0.194,0.312 -0.218,0.36C-0.259,0.437 -0.28,0.514 -0.28,0.59C-0.28,0.644 -0.271,0.694 -0.253,0.741C-0.212,0.866 -0.127,0.965 0,1.039" style="fill:rgb(182,106,44);fill-rule:nonzero;"/>
            </g>
        </g>
        <g transform="matrix(0.501702,0,0,0.501702,-112.471147,-373.425642)">
            <g transform="matrix(8.991555,0,0,8.991555,1147.924666,1217.559881)">
                <path d="M0,-0.604L0,1.51C0,1.694 -0.065,1.852 -0.195,1.985C-0.326,2.118 -0.486,2.185 -0.675,2.185C-0.859,2.185 -0.95,2.105 -0.95,1.945L-0.95,-3.047L-1.723,-2.602C-1.907,-2.484 -1.999,-2.324 -1.999,-2.123L-1.999,1.519C-1.999,1.702 -2.065,1.861 -2.198,1.994C-2.332,2.127 -2.49,2.194 -2.673,2.194L-5.613,2.194C-5.797,2.194 -5.889,2.114 -5.889,1.954L-5.889,0.346C-5.889,0.039 -5.97,-0.235 -6.133,-0.475C-6.296,-0.715 -6.478,-0.894 -6.679,-1.013C-6.756,-1.054 -6.83,-1.075 -6.901,-1.075C-7.067,-1.075 -7.197,-0.998 -7.292,-0.844C-7.334,-0.773 -7.354,-0.699 -7.354,-0.622C-7.354,-0.462 -7.277,-0.334 -7.123,-0.24C-7.046,-0.198 -6.969,-0.178 -6.892,-0.178C-6.839,-0.178 -6.783,-0.189 -6.724,-0.213C-6.594,-0.266 -6.508,-0.367 -6.466,-0.515C-6.454,-0.557 -6.425,-0.577 -6.377,-0.577C-6.348,-0.577 -6.324,-0.562 -6.306,-0.533C-6.223,-0.373 -6.182,-0.207 -6.182,-0.036C-6.182,0.314 -6.342,0.589 -6.661,0.79C-6.845,0.909 -6.937,1.069 -6.937,1.27C-6.937,1.448 -6.898,1.609 -6.821,1.754C-6.744,1.899 -6.642,2.022 -6.515,2.123C-6.388,2.224 -6.246,2.302 -6.089,2.358C-5.932,2.414 -5.773,2.443 -5.613,2.443L-2.673,2.443C-2.274,2.443 -1.924,2.322 -1.621,2.082C-1.609,2.093 -1.598,2.104 -1.585,2.114C-1.31,2.333 -1.007,2.443 -0.675,2.443C-0.207,2.443 0.197,2.272 0.537,1.932C0.878,1.591 1.048,1.19 1.048,0.728L1.048,-1.528L0.275,-1.084C0.092,-0.965 0,-0.805 0,-0.604" style="fill:rgb(182,106,44);fill-rule:nonzero;"/>
            </g>
        </g>
        <g transform="matrix(0.501702,0,0,0.501702,-112.471147,-373.425642)">
            <g transform="matrix(8.991555,0,0,8.991555,1157.427841,1200.469632)">
                <path d="M0,-1.137L-0.409,-0.728C-0.432,-0.705 -0.45,-0.684 -0.462,-0.666C-0.468,-0.684 -0.483,-0.705 -0.506,-0.728L-0.915,-1.137L-1.323,-0.728C-1.365,-0.681 -1.386,-0.628 -1.386,-0.569C-1.386,-0.509 -1.365,-0.456 -1.323,-0.409L-0.915,0L-0.506,-0.409C-0.483,-0.432 -0.468,-0.453 -0.462,-0.471C-0.45,-0.453 -0.432,-0.432 -0.409,-0.409L0,0L0.409,-0.409C0.45,-0.456 0.471,-0.509 0.471,-0.569C0.471,-0.628 0.45,-0.681 0.409,-0.728L0,-1.137Z" style="fill:rgb(182,106,44);fill-rule:nonzero;"/>
            </g>
        </g>
        <g transform="matrix(0.501702,0,0,0.501702,-112.471147,-373.425642)">
            <g transform="matrix(8.991555,0,0,8.991555,1267.398158,1216.200358)">
                <path d="M0,1.67C0,1.854 -0.067,2.012 -0.2,2.145C-0.333,2.278 -0.494,2.345 -0.684,2.345C-0.867,2.339 -1.026,2.271 -1.159,2.141C-1.292,2.011 -1.359,1.854 -1.359,1.67L-1.359,-1.705C-1.359,-1.895 -1.292,-2.054 -1.159,-2.185C-1.026,-2.315 -0.865,-2.38 -0.675,-2.38C-0.492,-2.38 -0.333,-2.315 -0.2,-2.185C-0.067,-2.054 0,-1.895 0,-1.705L0,1.67ZM-4.397,1.661C-4.397,1.845 -4.463,2.003 -4.596,2.136C-4.73,2.27 -4.888,2.336 -5.072,2.336C-5.261,2.336 -5.422,2.27 -5.556,2.136C-5.689,2.003 -5.755,1.845 -5.755,1.661L-5.755,0.009C-5.755,-0.18 -5.689,-0.34 -5.556,-0.471C-5.422,-0.601 -5.261,-0.666 -5.072,-0.666C-4.888,-0.666 -4.73,-0.601 -4.596,-0.471C-4.463,-0.34 -4.397,-0.18 -4.397,0.009L-4.397,1.661ZM-8.793,1.661C-8.793,1.839 -8.86,1.996 -8.993,2.132C-9.126,2.268 -9.288,2.336 -9.477,2.336C-9.661,2.336 -9.819,2.27 -9.952,2.136C-10.085,2.003 -10.152,1.845 -10.152,1.661L-10.152,-1.714C-10.152,-1.898 -10.085,-2.056 -9.952,-2.189C-9.819,-2.322 -9.661,-2.389 -9.477,-2.389C-9.288,-2.389 -9.126,-2.324 -8.993,-2.194C-8.86,-2.063 -8.793,-1.903 -8.793,-1.714L-8.793,1.661ZM0.533,-2.131C0.195,-2.469 -0.207,-2.638 -0.675,-2.638C-0.906,-2.638 -1.127,-2.59 -1.337,-2.496C-1.547,-2.401 -1.729,-2.277 -1.883,-2.123C-2.037,-1.969 -2.161,-1.788 -2.256,-1.581C-2.351,-1.373 -2.398,-1.151 -2.398,-0.915L-2.398,0.879C-2.398,1.11 -2.351,1.33 -2.256,1.537C-2.22,1.614 -2.185,1.682 -2.149,1.741C-2.114,1.8 -2.081,1.857 -2.052,1.91C-2.022,1.963 -2.007,2.013 -2.007,2.061C-2.007,2.102 -2.022,2.147 -2.052,2.194C-2.093,2.271 -2.155,2.318 -2.238,2.336L-3.073,2.336C-3.263,2.336 -3.357,2.256 -3.357,2.096L-3.357,0.994C-3.352,0.931 -3.348,0.866 -3.348,0.8C-3.348,-0.349 -3.352,-0.953 -3.357,-1.012C-3.381,-1.45 -3.55,-1.826 -3.864,-2.14C-4.213,-2.478 -4.616,-2.647 -5.072,-2.647C-5.528,-2.647 -5.929,-2.476 -6.275,-2.136C-6.621,-1.795 -6.795,-1.391 -6.795,-0.924L-6.795,-0.479L-6.031,-0.924C-5.847,-1.036 -5.755,-1.196 -5.755,-1.403L-5.755,-1.714C-5.755,-1.898 -5.689,-2.056 -5.556,-2.189C-5.422,-2.322 -5.261,-2.389 -5.072,-2.389C-4.888,-2.389 -4.73,-2.322 -4.596,-2.189C-4.463,-2.056 -4.397,-1.898 -4.397,-1.714L-4.397,-1.252C-4.403,-1.163 -4.438,-1.086 -4.503,-1.021C-4.568,-0.956 -4.648,-0.924 -4.743,-0.924L-5.072,-0.924C-5.308,-0.924 -5.531,-0.876 -5.738,-0.781C-6.158,-0.604 -6.466,-0.299 -6.661,0.133C-6.75,0.347 -6.795,0.592 -6.795,0.871C-6.795,1.173 -6.712,1.466 -6.546,1.75L-6.448,1.919C-6.419,1.966 -6.404,2.013 -6.404,2.061C-6.404,2.102 -6.416,2.147 -6.439,2.194C-6.505,2.289 -6.587,2.336 -6.688,2.336L-7.47,2.336C-7.659,2.336 -7.754,2.256 -7.754,2.096L-7.754,-0.924C-7.754,-1.16 -7.798,-1.382 -7.887,-1.59C-7.976,-1.797 -8.1,-1.979 -8.26,-2.136C-8.42,-2.293 -8.604,-2.416 -8.811,-2.505C-9.018,-2.593 -9.24,-2.638 -9.477,-2.638C-9.945,-2.638 -10.347,-2.466 -10.685,-2.123C-11.022,-1.779 -11.191,-1.379 -11.191,-0.924L-11.191,0.871C-11.191,1.102 -11.147,1.321 -11.058,1.528C-10.874,1.948 -10.567,2.256 -10.134,2.452C-9.927,2.546 -9.708,2.594 -9.477,2.594L-9.148,2.594C-9.054,2.594 -8.974,2.626 -8.909,2.691C-8.843,2.757 -8.808,2.834 -8.802,2.922C-8.832,3.414 -9.063,3.769 -9.495,3.988C-9.672,4.059 -9.862,4.095 -10.063,4.095C-10.075,4.095 -10.142,4.092 -10.263,4.086C-10.384,4.08 -10.534,4.03 -10.712,3.935C-10.735,3.917 -10.747,3.899 -10.747,3.882L-10.747,3.846C-10.747,3.828 -10.729,3.813 -10.694,3.802C-10.564,3.76 -10.472,3.68 -10.418,3.562C-10.401,3.514 -10.392,3.464 -10.392,3.411C-10.392,3.346 -10.41,3.278 -10.445,3.207C-10.528,3.07 -10.641,3.002 -10.783,3.002C-10.854,3.002 -10.925,3.02 -10.996,3.056C-11.132,3.132 -11.2,3.251 -11.2,3.411C-11.2,3.476 -11.182,3.541 -11.147,3.606C-11.04,3.79 -10.877,3.954 -10.658,4.099C-10.439,4.244 -10.194,4.317 -9.921,4.317C-9.607,4.305 -9.323,4.228 -9.068,4.086C-8.79,3.932 -8.553,3.731 -8.358,3.482C-8.162,3.233 -8.013,2.952 -7.909,2.638C-7.898,2.603 -7.887,2.568 -7.877,2.533C-7.746,2.573 -7.611,2.594 -7.47,2.594L-5.072,2.594C-4.835,2.594 -4.613,2.548 -4.405,2.456C-4.267,2.395 -4.142,2.317 -4.028,2.226C-4.013,2.239 -3.999,2.253 -3.984,2.265C-3.708,2.484 -3.405,2.594 -3.073,2.594L-0.675,2.594C-0.207,2.594 0.195,2.425 0.533,2.087C0.87,1.75 1.039,1.347 1.039,0.879L1.039,-0.915C1.039,-1.388 0.87,-1.794 0.533,-2.131Z" style="fill:rgb(182,106,44);fill-rule:nonzero;"/>
            </g>
        </g>
        <g transform="matrix(0.501702,0,0,0.501702,-112.471147,-373.425642)">
            <g transform="matrix(8.991555,0,0,8.991555,1257.256583,1180.10286)">
                <path d="M0,1.137L0.409,0.728C0.426,0.705 0.441,0.681 0.453,0.657C0.465,0.681 0.48,0.705 0.497,0.728L0.906,1.137L1.315,0.728C1.362,0.681 1.386,0.628 1.386,0.569C1.386,0.509 1.362,0.453 1.315,0.4L0.906,0L0.497,0.4C0.48,0.424 0.465,0.45 0.453,0.48C0.441,0.45 0.426,0.424 0.409,0.4L0,0L-0.409,0.4C-0.456,0.453 -0.48,0.509 -0.48,0.569C-0.48,0.628 -0.456,0.681 -0.409,0.728L0,1.137Z" style="fill:rgb(182,106,44);fill-rule:nonzero;"/>
            </g>
        </g>
        <g transform="matrix(0.501702,0,0,0.501702,-112.471147,-373.425642)">
            <g transform="matrix(1,0,0,1,-275.646842,14.980807)">
                <path d="M1600.445,1041.645L1600.445,951.05C1600.445,945.646 1602.908,941.354 1607.835,938.176L1628.338,926.494L1628.338,1060.003C1628.338,1064.294 1630.881,1066.44 1635.968,1066.44L1635.968,1073.354C1626.908,1073.354 1618.723,1070.453 1611.411,1064.652C1610.986,1064.314 1610.573,1063.97 1610.172,1063.62C1603.687,1057.951 1600.445,1050.627 1600.445,1041.645Z" style="fill:rgb(182,106,44);"/>
            </g>
        </g>
        <g transform="matrix(0.501702,0,0,0.501702,-112.471147,-373.425642)">
            <g transform="matrix(1,0,0,1,-275.646842,14.980807)">
                <path d="M1465.028,1072.835L1465.028,1073.592C1465.028,1079.791 1463.796,1085.672 1461.333,1091.235C1458.869,1096.797 1455.531,1101.685 1451.319,1105.897C1447.107,1110.109 1442.18,1113.446 1436.538,1115.91C1430.896,1118.374 1424.975,1119.605 1418.776,1119.605C1412.578,1119.605 1406.657,1118.374 1401.015,1115.91C1395.373,1113.446 1390.485,1110.069 1386.353,1105.778C1377.293,1096.718 1372.763,1086.069 1372.763,1073.831L1372.763,1041.884C1372.763,1036.48 1375.147,1032.188 1379.916,1029.01C1388.657,1023.765 1393.028,1016.612 1393.028,1007.553C1393.028,1002.626 1391.836,998.016 1389.452,993.725C1388.975,992.93 1388.339,992.533 1387.545,992.533L1386.591,992.533C1386.114,992.533 1385.637,993.089 1385.161,994.202C1384.048,998.175 1381.743,1000.877 1378.247,1002.308C1376.816,1002.944 1375.306,1003.261 1373.717,1003.261C1371.651,1003.261 1369.585,1002.705 1367.518,1001.593C1363.545,999.208 1361.558,995.791 1361.558,991.341C1361.558,989.275 1362.114,987.288 1363.227,985.381C1365.611,981.248 1369.108,979.182 1373.717,979.182C1375.624,979.182 1377.611,979.738 1379.677,980.851C1385.081,984.03 1389.929,988.838 1394.22,995.275C1398.512,1001.712 1400.657,1009.063 1400.657,1017.328L1400.657,1094.811C1400.657,1099.738 1402.445,1103.99 1406.021,1107.566C1409.598,1111.142 1413.849,1112.93 1418.776,1112.93C1423.704,1112.93 1427.955,1111.142 1431.531,1107.566C1435.107,1103.99 1436.896,1099.738 1436.896,1094.811L1436.896,991.818C1436.896,986.414 1439.359,982.202 1444.286,979.182L1465.028,967.262L1465.028,1060.48C1465.028,1064.612 1467.571,1066.678 1472.657,1066.678C1477.743,1066.678 1482.034,1064.89 1485.531,1061.314C1489.028,1057.738 1490.776,1053.486 1490.776,1048.559L1490.776,991.818C1490.776,986.414 1493.24,982.122 1498.167,978.944L1518.908,967.023L1518.908,1027.579C1518.908,1039.977 1514.339,1050.745 1505.2,1059.884C1496.061,1069.023 1485.213,1073.592 1472.657,1073.592C1470.049,1073.592 1467.506,1073.34 1465.028,1072.835Z" style="fill:rgb(182,106,44);"/>
            </g>
        </g>
        <g transform="matrix(0.501702,0,0,0.501702,-112.471147,-373.425642)">
            <g transform="matrix(1,0,0,1,-275.646842,14.980807)">
                <path d="M1223.519,1060.241C1223.519,1064.533 1226.062,1066.678 1231.148,1066.678L1270.724,1066.678C1276.128,1066.678 1281.214,1065.645 1285.982,1063.579C1295.678,1059.288 1302.591,1052.294 1306.724,1042.599C1308.79,1037.831 1309.823,1032.745 1309.823,1027.341L1309.823,957.964C1309.823,952.878 1308.035,948.586 1304.459,945.089C1300.883,941.593 1296.631,939.844 1291.704,939.844C1288.525,939.844 1285.585,940.56 1282.883,941.99C1273.505,947.394 1266.592,951.407 1262.141,954.03C1257.691,956.652 1254.592,958.401 1252.843,959.275C1251.095,960.149 1249.744,960.983 1248.79,961.778L1248.79,937.699C1248.79,932.295 1251.254,928.083 1256.181,925.063L1310.777,893.355C1313.32,891.924 1315.783,891.209 1318.168,891.209C1320.711,891.209 1323.174,891.924 1325.558,893.355C1330.326,895.898 1334.856,897.169 1339.148,897.169C1341.532,897.169 1343.836,896.772 1346.061,895.977C1352.419,893.593 1357.426,889.54 1361.081,883.818L1361.32,882.626C1361.32,881.196 1360.604,880.48 1359.174,880.48L1358.459,880.48C1357.346,880.798 1356.234,880.957 1355.121,880.957C1352.419,880.957 1349.955,880.083 1347.73,878.335C1344.71,876.11 1343.201,873.01 1343.201,869.037C1343.201,865.699 1344.353,862.838 1346.657,860.454C1348.962,858.07 1351.783,856.878 1355.121,856.878C1358.459,856.878 1361.32,858.07 1363.704,860.454C1366.088,862.838 1367.28,865.699 1367.28,869.037C1367.28,874.918 1365.532,881.355 1362.035,888.348C1358.538,895.341 1353.214,900.984 1346.061,905.275L1321.267,919.58L1320.79,920.056C1320.631,920.215 1320.472,920.295 1320.313,920.295L1297.664,933.407C1307.519,934.52 1316.419,938.891 1324.366,946.52C1333.267,955.738 1337.717,966.626 1337.717,979.182L1337.717,995.394C1337.717,1004.93 1336.207,1014.308 1333.187,1023.526C1330.167,1032.745 1325.757,1041.089 1319.956,1048.559C1314.154,1056.029 1307.081,1062.069 1298.737,1066.678C1290.393,1071.288 1281.055,1073.592 1270.724,1073.592L1231.148,1073.592C1227.384,1073.592 1223.756,1073.067 1220.262,1072.015C1219.976,1072.998 1219.671,1073.98 1219.347,1074.963C1216.565,1083.399 1212.552,1090.959 1207.307,1097.642C1202.062,1104.327 1195.704,1109.739 1188.234,1113.876C1181.4,1117.696 1173.771,1119.605 1165.347,1119.605C1158.036,1119.605 1151.44,1117.671 1145.559,1113.802C1139.678,1109.935 1135.307,1105.555 1132.446,1100.663C1131.493,1098.925 1131.016,1097.187 1131.016,1095.451C1131.016,1091.19 1132.844,1088.032 1136.499,1085.978C1138.407,1085.032 1140.314,1084.559 1142.221,1084.559C1146.036,1084.559 1149.056,1086.387 1151.281,1090.043C1152.234,1091.95 1152.711,1093.778 1152.711,1095.526C1152.711,1096.956 1152.473,1098.307 1151.996,1099.579C1150.566,1102.758 1148.102,1104.903 1144.605,1106.016C1143.652,1106.334 1143.175,1106.731 1143.175,1107.208L1143.175,1108.162C1143.175,1108.661 1143.493,1109.159 1144.128,1109.655C1148.897,1112.315 1152.91,1113.645 1156.168,1113.645L1161.532,1113.645C1166.936,1113.645 1172.022,1112.698 1176.791,1110.803C1188.393,1104.957 1194.592,1095.476 1195.387,1082.361C1195.228,1079.992 1194.274,1077.938 1192.526,1076.2C1190.777,1074.461 1188.632,1073.592 1186.089,1073.592L1177.267,1073.592C1171.069,1073.592 1165.188,1072.321 1159.625,1069.778C1148.023,1064.533 1139.758,1056.268 1134.831,1044.983C1132.446,1039.42 1131.254,1033.539 1131.254,1027.341L1131.254,979.182C1131.254,966.944 1135.784,956.215 1144.844,946.997C1153.903,937.778 1164.711,933.169 1177.267,933.169C1183.625,933.169 1189.585,934.362 1195.148,936.749C1200.711,939.135 1205.638,942.438 1209.93,946.658C1214.221,950.875 1217.559,955.768 1219.943,961.339C1222.327,966.906 1223.519,972.874 1223.519,979.242L1223.519,1060.241ZM1195.625,957.964C1195.625,952.878 1193.837,948.586 1190.261,945.089C1186.685,941.593 1182.353,939.844 1177.267,939.844C1172.34,939.844 1168.089,941.633 1164.513,945.209C1160.936,948.785 1159.148,953.036 1159.148,957.964L1159.148,1048.559C1159.148,1053.486 1160.936,1057.738 1164.513,1061.314C1168.089,1064.89 1172.34,1066.678 1177.267,1066.678C1182.353,1066.678 1186.685,1064.851 1190.261,1061.195C1193.837,1057.539 1195.625,1053.327 1195.625,1048.559L1195.625,957.964Z" style="fill:rgb(182,106,44);"/>
            </g>
        </g>
        <g transform="matrix(0.501702,0,0,0.501702,-112.471147,-373.425642)">
            <g transform="matrix(1,0,0,1,-275.646842,14.980807)">
                <path d="M992.738,1073.592C988.447,1073.592 984.195,1072.837 979.983,1071.327C975.772,1069.817 971.917,1067.712 968.421,1065.01C960.95,1058.97 957.215,1051.182 957.215,1041.645L957.215,946.282C957.215,944.215 956.619,942.626 955.427,941.513C954.235,940.401 952.447,939.844 950.063,939.844C944.818,939.844 940.407,941.593 936.831,945.089C933.255,948.586 931.467,952.798 931.467,957.725L931.467,1027.341C931.467,1033.698 930.275,1039.659 927.891,1045.222C922.646,1056.824 914.381,1065.01 903.096,1069.778C897.533,1072.321 891.573,1073.592 885.216,1073.592C874.726,1073.592 865.308,1071.288 856.964,1066.678C848.62,1062.069 841.547,1056.029 835.746,1048.559C829.944,1041.089 825.494,1032.745 822.395,1023.526C819.295,1014.308 817.746,1005.01 817.746,995.632C817.746,992.93 818.381,990.387 819.653,988.003C820.924,985.619 822.752,983.871 825.136,982.758C833.878,977.354 838.249,970.123 838.249,961.063C838.249,956.295 837.057,951.685 834.673,947.235C834.196,946.44 833.481,946.043 832.527,946.043C831.573,946.202 830.858,946.758 830.381,947.712C829.269,951.685 826.964,954.387 823.468,955.818C821.878,956.613 820.289,957.01 818.699,957.01C816.792,957.01 814.805,956.454 812.739,955.341C808.766,952.957 806.779,949.46 806.779,944.851C806.779,942.785 807.335,940.798 808.448,938.891C810.991,934.758 814.408,932.692 818.699,932.692C820.766,932.692 822.832,933.248 824.898,934.361C830.302,937.54 835.15,942.388 839.441,948.904C843.732,955.421 845.878,962.732 845.878,970.838L845.878,1026.626C845.878,1032.188 846.911,1037.433 848.977,1042.361C851.044,1047.288 853.825,1051.5 857.322,1054.996C860.818,1058.493 864.991,1061.274 869.838,1063.341C874.686,1065.407 879.812,1066.44 885.216,1066.44C890.302,1066.44 894.593,1064.692 898.09,1061.195C901.586,1057.698 903.335,1053.407 903.335,1048.321L903.335,978.944C903.335,972.586 904.567,966.666 907.03,961.182C909.494,955.699 912.831,950.811 917.043,946.52C921.255,942.229 926.143,938.891 931.705,936.507C937.268,934.123 943.229,932.931 949.586,932.931C953.878,932.931 958.169,933.686 962.46,935.195C966.752,936.705 970.606,938.811 974.023,941.513C977.44,944.215 980.142,947.553 982.129,951.527C984.116,955.5 985.109,959.95 985.109,964.877L985.109,1060.48C985.109,1064.612 987.652,1066.678 992.738,1066.678L1015.149,1066.678C1017.374,1066.202 1019.043,1064.93 1020.155,1062.864C1020.95,1061.592 1021.348,1060.4 1021.348,1059.288C1021.348,1058.016 1020.95,1056.665 1020.155,1055.235C1019.361,1053.804 1018.487,1052.294 1017.533,1050.705C1016.579,1049.116 1015.626,1047.288 1014.672,1045.222C1012.129,1039.659 1010.857,1033.778 1010.857,1027.579L1010.857,979.42C1010.857,973.063 1012.129,967.103 1014.672,961.54C1017.215,955.977 1020.553,951.129 1024.685,946.997C1028.818,942.864 1033.705,939.527 1039.347,936.984C1044.99,934.441 1050.91,933.169 1057.109,933.169C1069.665,933.169 1080.473,937.699 1089.533,946.758C1098.592,955.818 1103.122,966.705 1103.122,979.42L1103.122,1027.579C1103.122,1040.135 1098.592,1050.943 1089.533,1060.003C1080.473,1069.063 1069.665,1073.592 1057.109,1073.592L992.738,1073.592ZM1056.871,1066.917C1061.957,1066.917 1066.288,1065.129 1069.864,1061.553C1073.44,1057.976 1075.228,1053.725 1075.228,1048.798L1075.228,958.202C1075.228,953.116 1073.44,948.825 1069.864,945.328C1066.288,941.831 1062.036,940.083 1057.109,940.083C1052.023,940.083 1047.692,941.835 1044.116,945.339C1040.539,948.843 1038.751,953.142 1038.751,958.236L1038.751,1049.003C1038.751,1053.94 1040.539,1058.16 1044.116,1061.664C1047.692,1065.166 1051.943,1066.917 1056.871,1066.917Z" style="fill:rgb(182,106,44);"/>
            </g>
        </g>
    </g>
</svg>
